<svg id="Layer_1" data-name="Layer 1" xmlns="http://www.w3.org/2000/svg" viewBox="0 0 136.13 136.13"><defs><style>.cls-1{fill:#fff;}.cls-2{fill:#679ed5;}.cls-3{fill:#a168a8;}</style></defs><rect class="cls-1" width="136.13" height="136.13" rx="27.14"/><path class="cls-2" d="M289.38,239.55a33.25,33.25,0,0,1-2.66,13.07,31.6,31.6,0,0,1-1.63,3.3,33.56,33.56,0,0,1-9.24,10.45c-.88.65-1.8,1.25-2.74,1.82a33.3,33.3,0,0,1-33.53.34,17.44,17.44,0,0,1,7.71-10.42,20.53,20.53,0,0,0,28.34-12.45,21,21,0,0,0,.74-3.29,20.13,20.13,0,0,0,.2-2.82,20.52,20.52,0,1,0-41,0,20.25,20.25,0,0,0,.25,3.24,37,37,0,0,0-10.13,10.46,33.14,33.14,0,0,1-2.94-13.7V206.22h33.34a33.32,33.32,0,0,1,33.33,33.33Z" transform="translate(-187.98 -188.15)"/><path class="cls-3" d="M286.58,259.5a37,37,0,0,1-9.92,10.15l-.32.21a20.1,20.1,0,0,1,.23,3A20.51,20.51,0,1,1,265,254.42l.16-.09a17.43,17.43,0,0,0,7.65-10.26,33.17,33.17,0,0,0-16.76-4.52h0a33.34,33.34,0,0,0-33.34,33.34v33.33h33.34a33.33,33.33,0,0,0,33.33-33.33h0A33.2,33.2,0,0,0,286.58,259.5Z" transform="translate(-187.98 -188.15)"/></svg>