<svg id="Layer_1" data-name="Layer 1" xmlns="http://www.w3.org/2000/svg" viewBox="0 0 500 300"><defs><style>.cls-1{fill:#f2f2f2;}.cls-2{fill:#679ed5;}.cls-3{fill:#a168a8;}</style></defs><rect class="cls-1" x="-138.74" y="-97.06" width="771.78" height="475.69"/><path class="cls-2" d="M247.67,226.56h0c-1-.6-1.91-1.21-2.86-1.85h0l-1-.7h0c-.39-.27-.77-.56-1.16-.84-.65-.46-1.29-.92-1.92-1.4h0c-.95-.72-1.9-1.46-2.83-2.23h0c-1.26-1-2.51-2.13-3.73-3.25-.93-.87-1.86-1.74-2.77-2.65h0c-1.61-1.61-3.13-3.27-4.59-5h0l-.67-.78h0c-.53-.63-1.05-1.27-1.56-1.91h0l-.54-.68c-.61-.78-1.21-1.58-1.79-2.38h0l-.16-.21a56.44,56.44,0,0,1-8.93,2.09c.17.24.32.49.49.73l.41.6c.61.88,1.23,1.75,1.87,2.6l.06.08c.62.83,1.25,1.64,1.89,2.44l.51.64c.67.82,1.34,1.64,2,2.45,0,0,0,0,0,.05q1,1.18,2.1,2.34l.56.6c.73.78,1.48,1.56,2.24,2.32s1.64,1.61,2.48,2.39l.65.6c.83.76,1.66,1.51,2.51,2.24l.28.23c.76.65,1.54,1.29,2.32,1.91l.81.64c.85.66,1.69,1.31,2.56,1.94l.53.39c.74.53,1.48,1.05,2.23,1.56l.86.58.52.33A87.36,87.36,0,0,0,250,228c-.42-.24-.83-.5-1.25-.75Z"/><path class="cls-2" d="M237.49,230l-.53-.39c-.87-.63-1.71-1.28-2.56-1.94l-.81-.64c-.78-.62-1.56-1.26-2.32-1.91l-.28-.23c-.85-.73-1.68-1.48-2.51-2.24l-.65-.6c-.84-.78-1.67-1.57-2.48-2.39s-1.51-1.54-2.24-2.32l-.56-.6q-1.06-1.16-2.1-2.34s0,0,0-.05c-.7-.81-1.37-1.63-2-2.45l-.51-.64c-.64-.8-1.27-1.61-1.89-2.44l-.06-.08c-.64-.85-1.26-1.72-1.87-2.6l-.41-.6c-.17-.24-.34-.48-.5-.73a55.41,55.41,0,1,1,0-109.62,98.88,98.88,0,0,1,12.23-14.85,100.23,100.23,0,0,1,15.73-12.82,90,90,0,0,0-99.71,18.84L77.73,150l63.64,63.64a90,90,0,0,0,99.71,18.84l-.5-.34-.86-.58C239,231.05,238.23,230.53,237.49,230Z"/><path class="cls-2" d="M275.62,201.9c-.7-.25-1.39-.53-2.07-.82l-.15-.06c-.69-.29-1.38-.6-2.06-.92l-.09,0a54.38,54.38,0,0,1-7.69-4.45l-.2-.13h0c-.36-.26-.72-.51-1.08-.78l-.75-.56a53.78,53.78,0,0,1-4.43-3.74c-.43-.4-.85-.8-1.27-1.22s-1.07-1.1-1.59-1.66h0c-1-1.09-1.94-2.21-2.84-3.35h0l-.06-.07c-.37-.48-.73-1-1.08-1.45l-.25-.33a55.92,55.92,0,0,1-5.82,6.86,55.26,55.26,0,0,1-22.13,13.54l.16.21c.58.8,1.18,1.6,1.79,2.38l.54.68c.51.64,1,1.28,1.56,1.91l.67.78c.52.61,1.06,1.22,1.61,1.82l.65.72c.76.81,1.53,1.62,2.33,2.42h0c.91.91,1.84,1.78,2.77,2.65h0l.8.72c.77.69,1.55,1.36,2.33,2l.6.51c.93.77,1.88,1.51,2.84,2.23l1,.72,1,.68c.39.28.77.57,1.16.84l1,.7c.95.64,1.9,1.25,2.86,1.85l1.07.64c.32.2.65.38,1,.57l.29.17a90,90,0,0,0,18.64-14.3h0A90.88,90.88,0,0,0,278,202.72h0c-.74-.24-1.47-.49-2.2-.76Z"/><path class="cls-2" d="M269.08,199l.05,0a55.07,55.07,0,0,0,8.84,3.73q2.61-3.63,4.82-7.44l-.34-.1c-.77-.22-1.54-.45-2.3-.7l-.39-.13c-.88-.3-1.75-.63-2.61-1l-.35-.15c-.76-.32-1.51-.66-2.26-1l-.42-.2c-.83-.41-1.65-.85-2.46-1.31l-.26-.16c-.71-.42-1.42-.85-2.11-1.31l-.5-.33c-.76-.51-1.51-1-2.24-1.61l-.19-.15c-.66-.51-1.31-1.05-1.95-1.6l-.53-.46c-.69-.62-1.37-1.25-2-1.9s-1.37-1.42-2-2.16c-.34-.39-.66-.79-1-1.19s-.58-.68-.85-1c-.39-.51-.76-1-1.13-1.54l-.55-.77c-.37-.54-.71-1.08-1.05-1.63-.13-.21-.28-.42-.41-.64a55,55,0,0,1-4.84,8.12l.1.13.15.2c.35.49.71,1,1.08,1.45h0l.06.07c.44.56.89,1.12,1.35,1.66l.16.18c.43.51.88,1,1.33,1.51s1,1.11,1.59,1.66.85.82,1.27,1.22l.94.85.55.49c.73.64,1.47,1.27,2.23,1.86,0,0,0,0,.05.05q1.23.94,2.49,1.83l.2.13.18.13A56.14,56.14,0,0,0,269.08,199Z"/><path class="cls-2" d="M256.31,176.47l.55.77c.37.51.74,1,1.13,1.54.27.35.57.69.85,1s.65.8,1,1.19c.65.74,1.32,1.46,2,2.16s1.34,1.28,2,1.9l.53.46c.64.55,1.29,1.09,1.95,1.6l.19.15c.73.56,1.48,1.1,2.24,1.61l.5.33c.69.46,1.4.89,2.11,1.31l.26.16c.81.46,1.63.9,2.46,1.31l.42.2c.75.37,1.5.71,2.26,1l.35.15c.86.35,1.73.68,2.61,1l.39.13c.76.25,1.53.48,2.3.7l.34.09a90.14,90.14,0,0,0,0-90.55,46.84,46.84,0,0,0-27.94,21.08,55.51,55.51,0,0,1,0,48.39c.13.22.28.43.41.65C255.6,175.39,255.94,175.93,256.31,176.47Z"/><path class="cls-3" d="M358.63,86.36a90,90,0,0,0-127.28,0h0a90,90,0,0,0-14.16,108.92h0a46.66,46.66,0,0,0,21-12.12,47.3,47.3,0,0,0,7-8.94,55.41,55.41,0,1,1,41.72,30.59,99.06,99.06,0,0,1-28,27.66h0a90,90,0,0,0,99.72-18.84L422.27,150Z"/></svg>