<svg id="Layer_1" data-name="Layer 1" xmlns="http://www.w3.org/2000/svg" xmlns:xlink="http://www.w3.org/1999/xlink" viewBox="0 0 500 300"><defs><style>.cls-1{fill:#f2f2f2;}.cls-2{fill:url(#linear-gradient);}</style><linearGradient id="linear-gradient" x1="152.76" y1="150" x2="347.24" y2="150" gradientUnits="userSpaceOnUse"><stop offset="0" stop-color="#679ed5"/><stop offset="1" stop-color="#a168a8"/></linearGradient></defs><rect class="cls-1" x="-138.74" y="-97.06" width="771.78" height="475.69"/><path class="cls-2" d="M347.24,205.6a15.4,15.4,0,1,1-30.5-3l-32.16-22.47a37.64,37.64,0,0,1-53,1.41L192.72,212a20.63,20.63,0,1,1-7.6-9.68l39-30.62A37.61,37.61,0,0,1,241,120.23L231.8,83.46a12,12,0,1,1,11.94-3l9,36.26a38.62,38.62,0,0,1,4.59-.27A37.62,37.62,0,0,1,291.5,169.9l32.29,22.56a15.4,15.4,0,0,1,23.45,13.14Z"/></svg>