<svg id="Layer_1" data-name="Layer 1" xmlns="http://www.w3.org/2000/svg" xmlns:xlink="http://www.w3.org/1999/xlink" viewBox="0 0 500 300"><defs><style>.cls-1{fill:#f2f2f2;}.cls-2{fill:url(#linear-gradient);}.cls-3{fill:url(#linear-gradient-2);}</style><linearGradient id="linear-gradient" x1="173.78" y1="150" x2="326.22" y2="150" gradientUnits="userSpaceOnUse"><stop offset="0" stop-color="#679ed5"/><stop offset="1" stop-color="#a168a8"/></linearGradient><linearGradient id="linear-gradient-2" x1="250.61" y1="150.06" x2="308.59" y2="150.06" xlink:href="#linear-gradient"/></defs><rect class="cls-1" x="-138.74" y="-97.06" width="771.78" height="475.69"/><path class="cls-2" d="M326,121.92c0,13,.37,25.91-.08,38.84-.73,20.8-11.12,37.38-26.7,51.36-13.47,12.1-29.18,20.92-46.42,27.34a7.27,7.27,0,0,1-4.7.25c-23.48-9.48-44.35-22.34-59.76-42a66,66,0,0,1-14.55-42.24c.17-24.89.1-49.77,0-74.66,0-3.22.7-4.29,4.43-4.56,24-1.72,47.37-6.35,69.47-15.79a6.56,6.56,0,0,1,4.58,0c22.32,9.55,45.91,14.11,70.18,15.87,3,.21,3.81,1,3.78,3.75-.12,14-.05,27.93-.05,41.89ZM183.35,85.44v3.77c0,21.84.22,43.67-.08,65.5-.21,15.74,5.3,29.33,15.72,41.3,13.3,15.29,30.34,25.82,49.16,34a6.91,6.91,0,0,0,4.66-.26,134.5,134.5,0,0,0,38.24-22.68c16.86-14.51,26.34-32,25.74-54.14-.58-21.26-.13-42.54-.13-63.81v-4c-1.49-.24-2.54-.45-3.59-.57C291.9,82.25,271.3,77.86,251.59,70c-1.18-.47-2.94,0-4.3.36C236,73.66,225,77.47,213.56,80.21,203.8,82.55,193.71,83.69,183.35,85.44Z"/><path class="cls-3" d="M308.53,92v32.19c0,10.24-.19,20.48.05,30.72.36,15.59-5.54,28.78-16.44,40.19-11.05,11.56-24.63,19.75-39.44,26.29-.52.22-1.09.35-2.09.68v-144C269.2,85.19,288.47,89.44,308.53,92Z"/></svg>