<svg id="Layer_1" data-name="Layer 1" xmlns="http://www.w3.org/2000/svg" xmlns:xlink="http://www.w3.org/1999/xlink" viewBox="0 0 500 300"><defs><style>.cls-1{fill:#f2f2f2;}.cls-2{fill:#a168a8;}.cls-3{fill:url(#linear-gradient);}.cls-4{fill:url(#linear-gradient-2);}.cls-5{fill:url(#linear-gradient-3);}.cls-6{fill:#679ed5;}.cls-7{fill:url(#linear-gradient-4);}.cls-8{fill:url(#linear-gradient-5);}.cls-9{fill:url(#linear-gradient-6);}.cls-10{fill:url(#linear-gradient-7);}.cls-11{fill:url(#linear-gradient-8);}.cls-12{fill:url(#linear-gradient-9);}.cls-13{fill:url(#linear-gradient-10);}.cls-14{fill:url(#linear-gradient-11);}.cls-15{fill:url(#linear-gradient-12);}.cls-16{fill:url(#linear-gradient-13);}.cls-17{fill:url(#linear-gradient-14);}.cls-18{fill:url(#linear-gradient-15);}.cls-19{fill:url(#linear-gradient-16);}.cls-20{fill:#75cae4;}.cls-21{fill:url(#linear-gradient-17);}.cls-22{fill:url(#linear-gradient-18);}.cls-23{fill:url(#linear-gradient-19);}.cls-24{fill:url(#linear-gradient-20);}.cls-25{fill:#94d3e1;}.cls-26{fill:#78cae2;}.cls-27{fill:#b2dee8;}.cls-28{fill:url(#linear-gradient-21);}.cls-29{fill:url(#radial-gradient);}</style><linearGradient id="linear-gradient" x1="268.43" y1="195.84" x2="307.03" y2="195.84" gradientUnits="userSpaceOnUse"><stop offset="0" stop-color="#679ed5"/><stop offset="1" stop-color="#a168a8"/></linearGradient><linearGradient id="linear-gradient-2" x1="251.09" y1="104.73" x2="297.57" y2="104.73" xlink:href="#linear-gradient"/><linearGradient id="linear-gradient-3" x1="291.12" y1="161.12" x2="313.77" y2="161.12" xlink:href="#linear-gradient"/><linearGradient id="linear-gradient-4" x1="231.38" y1="96.89" x2="277.32" y2="96.89" xlink:href="#linear-gradient"/><linearGradient id="linear-gradient-5" x1="236.17" y1="88.78" x2="270.76" y2="88.78" xlink:href="#linear-gradient"/><linearGradient id="linear-gradient-6" x1="208.37" y1="136.36" x2="228.66" y2="136.36" xlink:href="#linear-gradient"/><linearGradient id="linear-gradient-7" x1="234.23" y1="232.03" x2="283.19" y2="232.03" xlink:href="#linear-gradient"/><linearGradient id="linear-gradient-8" x1="268.74" y1="124.7" x2="297.85" y2="124.7" xlink:href="#linear-gradient"/><linearGradient id="linear-gradient-9" x1="207.94" y1="216.89" x2="230" y2="216.89" xlink:href="#linear-gradient"/><linearGradient id="linear-gradient-10" x1="306.24" y1="204.75" x2="308.46" y2="204.75" xlink:href="#linear-gradient"/><linearGradient id="linear-gradient-11" x1="229.68" y1="163.74" x2="284.2" y2="163.74" xlink:href="#linear-gradient"/><linearGradient id="linear-gradient-12" x1="223.18" y1="206.64" x2="262.46" y2="206.64" xlink:href="#linear-gradient"/><linearGradient id="linear-gradient-13" x1="212.29" y1="161.64" x2="238.89" y2="161.64" xlink:href="#linear-gradient"/><linearGradient id="linear-gradient-14" x1="282.57" y1="134.75" x2="297.03" y2="134.75" xlink:href="#linear-gradient"/><linearGradient id="linear-gradient-15" x1="241.44" y1="127.93" x2="259" y2="127.93" xlink:href="#linear-gradient"/><linearGradient id="linear-gradient-16" x1="216.48" y1="136.77" x2="231.21" y2="136.77" xlink:href="#linear-gradient"/><linearGradient id="linear-gradient-17" x1="278.08" y1="145.98" x2="288.05" y2="145.98" xlink:href="#linear-gradient"/><linearGradient id="linear-gradient-18" x1="228.33" y1="225.65" x2="249.38" y2="225.65" xlink:href="#linear-gradient"/><linearGradient id="linear-gradient-19" x1="224.67" y1="221.84" x2="239.65" y2="221.84" xlink:href="#linear-gradient"/><linearGradient id="linear-gradient-20" x1="233.56" y1="107.22" x2="237.23" y2="107.22" xlink:href="#linear-gradient"/><linearGradient id="linear-gradient-21" x1="144.71" y1="86.71" x2="211.75" y2="86.71" gradientTransform="translate(-35.04 141.8) rotate(-10.61)" xlink:href="#linear-gradient"/><radialGradient id="radial-gradient" cx="424.1" cy="233.57" r="32.94" gradientTransform="matrix(0.93, 0.01, -0.01, 1.18, -36.95, -83.77)" gradientUnits="userSpaceOnUse"><stop offset="0" stop-color="#679ed5"/><stop offset="0.56" stop-color="#8a7dba"/><stop offset="1" stop-color="#a168a8"/></radialGradient></defs><rect class="cls-1" x="-138.74" y="-97.06" width="771.78" height="475.69"/><path class="cls-2" d="M207.94,202.84c-4.12-11.72-4.78-23.39.43-35,2.78-6,3-12.87,6.91-18.41,4.43-.06,4.76-4.16,6.63-6.74,2.5-3.24,4.91-6.53,7.27-9.87,2.24-3.18,1.94-5-1.29-6.71a8.17,8.17,0,0,1-2.08-3.39,43.53,43.53,0,0,1,1.41-17.84l4.16-8.49c3.08-.39,2.65,2.67,4,4a71.77,71.77,0,0,0,5,10.19c4.58,3.81,10.13,5.32,15.75,6.5,2.14.46,4.38.45,6.37,1.53a37.51,37.51,0,0,0,8.7,5c4.46,3.39,8.55,2.45,13.15-.23,4.12-2.4,8.89-4,13.54-.57,1.66,2.18,2.14,4.76,2.55,7.38a13.7,13.7,0,0,1-2.2,12.56c-4.56,6.09-4.95,11.93.41,17.73A4.62,4.62,0,0,1,300,164.3c-1.42,3.08-.54,5.59,1.24,8.4,6.32,10,11.45,20.33,7.45,32.7l-.27,2.28c-4.93-.57-4.59-4.66-5.35-8-1.83-7.91-5.39-15.07-9.58-21.95a24.71,24.71,0,0,1-1.81-3.11c-2.68-4.63-6.33-5-10.14-1.16-2.82,2.87-4.91,6.34-7.71,9.24a8.1,8.1,0,0,0-1.9,6.77c1.41,8,.71,16.06,1,24.08.2,6.65,2.57,8.71,9.11,7.71a45,45,0,0,0,15.88-5.49c1.82-1,3.7-2.84,5.91-.61-2.48,4.21-4.56,8.77-9.55,10.75-2.19,1-4.09,2.52-6.49,3.22-1.45.42.74.94.41,1.64-1,2.18-3.11,2.61-5,3.38-11.51,2.89-22.36-1.69-33.5-2.95-4.06.13-6.39-3.59-10-4.5-2.42-.95-4.84-1.9-7.43-1.46.48,1.24,1.31,2.35.81,3.71a2.33,2.33,0,0,1-2.89,1.27c-8.73-5.42-14.94-13.05-19.4-22.18C209.93,206.25,209.49,204.25,207.94,202.84Z"/><path class="cls-3" d="M296.49,176.35A147.13,147.13,0,0,1,306.24,198c.85,4.49,1.21,9,0,13.48.09,1.82-1,2.86-2.44,3.66-8.09,6.65-17.48,9.46-27.85,9.64-4.33.07-6.19-1.66-6.15-6,.12-10.61.63-21.27-1.3-31.8-.54-3,1-5,2.61-7,4.56-3.59,9.26-7,13.62-10.87,3.47-3.05,5.66-3,8,1.14C293.91,172.27,295.25,174.29,296.49,176.35Z"/><path class="cls-4" d="M268.74,126.53l-7.3-4.78a70.88,70.88,0,0,1-7.1-3.23c-4-2.23-4.46-5.39-.66-7.93A42.59,42.59,0,0,0,272.19,84.3a3.56,3.56,0,0,1,5.13-2.58c8.58,12,15.77,24.73,20.25,38.86a82.07,82.07,0,0,0-22,7C273.26,128.71,270.9,127.7,268.74,126.53Z"/><path class="cls-5" d="M297.75,164.14,294.3,160c-4-4.78-4.2-10.07-.87-15.39,2.83-4.53,6.77-8.55,7-14.37,4.44,11.35,6.33,23.4,9.42,35.12a141.28,141.28,0,0,1,3.47,16.74c.45,3.24,1.22,6.84-1.19,9.87-2.23.44-2.75-1.44-3.08-2.75a53.81,53.81,0,0,0-8.94-18.38C298.59,168.78,299.42,166.05,297.75,164.14Z"/><path class="cls-6" d="M240.84,81.6q4.24-5.43,8.48-10.85c3.48,1.75,6.51,6.9,10.94,1.42.86-1.06,1.46-2.39,2.94-2.81a7.34,7.34,0,0,1,4.35.18l1.19,1.26c3.66,10.31-3.15,25.11-13.37,28.55-4.26,1.44-8.6,1.8-12.51-1.45-4.07-3.37-4.2-7.74-3.3-12.33A10.82,10.82,0,0,1,240.84,81.6Z"/><path class="cls-7" d="M277.32,81.72c-3.9,2.87-4.48,7.55-6.12,11.58-3,7.27-7,13.55-13.59,18.06-5.58,3.82-5.46,4.62.35,8,1.21.7,2.32,1.57,3.48,2.36-8-3-16.82-3.7-24.21-8.49-1.62-3.91-2.18-8.14-3.67-12.08-.73-1.6-1.46-3.19-2.18-4.79,2.14-2.76,2.63-6.62,5.8-8.69,2.82,1.33,1.63,4,1.88,6.08,1,8.6,6.5,11.67,14.58,8.38,6.89-2.8,16.74-15,15.83-26.74C269.38,74.25,269,73,270,72Z"/><path class="cls-8" d="M270,72c3.69,13.83-6.47,30.16-15.83,33.4-5.2,1.8-9.88,2.18-14.18-1.42-4-3.36-4.31-7.93-3.31-12.73.24-1.18.35-2.39.52-3.58.06-2.73,2.62-4,3.66-6.1,0,1,0,2,0,3-.16,5,.46,10,5.71,12.14C252,99,256.9,96.53,260.7,92.65c5.87-6,8.43-13.43,8-21.85Z"/><path class="cls-9" d="M216.48,150.7c-3.49,5.34-3.43,12.36-8.11,17.14.47-9.26,3.67-18,6-26.79,3.21-12.41,6.31-24.94,12.89-36.17l1.44,18C225.7,132.61,222.65,142.34,216.48,150.7Z"/><path class="cls-10" d="M249.38,228.23l33.81,5.91c-3.91,1.56-7.52,4-12,3.93-12,2-23.63,1.07-34.41-5.27a6,6,0,0,1-2.45-2.3c-.47-5.68,0-6.23,5.17-4.74C242.79,226.71,246.1,227.38,249.38,228.23Z"/><path class="cls-6" d="M297.75,164.14c8.54,7.33,11.93,17.32,14.35,27.82.33,4.84-.39,9.42-3.37,13.44.82-11.52-3.38-21.5-9.67-30.76C296.75,171.25,295.6,168,297.75,164.14Z"/><path class="cls-6" d="M263.88,70.89a8.36,8.36,0,0,1-2.33,4.78c-2.3,2-4.84,3.91-8.08,2.91-3.77-1.16-4-4.54-4.15-7.83l1-1.12a20.56,20.56,0,0,1,5.8-5.24,5.11,5.11,0,0,1,6.21.36C264.38,66.36,265.87,68.24,263.88,70.89Z"/><path class="cls-6" d="M236,229.55c10.38,8.53,22.68,9.13,35.26,8.52-14.87,4.13-28.59,1.58-41.25-7.14-.74-.5-.73-1,0-1.45l2.39-1.19C234,227.55,234.88,228.83,236,229.55Z"/><path class="cls-6" d="M263.88,70.89c-.56-5.12-4-5.35-7.77-4.23-2,.6-3.84,2-5.75,3a5.41,5.41,0,0,1,1.45-3.12c7.76-9.35,10.27-8.88,15.74,3Z"/><path class="cls-11" d="M268.74,126.53a13.4,13.4,0,0,0,9.23-1.48c6.11-3.17,12.57-5.15,19.6-4.47.09.76.19,1.51.28,2.27-6-.37-11.53,1.34-16.79,4.17C276.91,129.27,272.71,130.1,268.74,126.53Z"/><path class="cls-12" d="M230,229.48l0,1.45c-11.1-6.41-18.32-15.87-22-28.09,2.41,1.15,3.18,3.57,4.25,5.68C216.45,217,222.63,223.71,230,229.48Z"/><path class="cls-6" d="M288.21,230.76c-3.46-.27-7,.52-10.51-1.5,5.73-.48,11-2.75,16.59-3.36C292.57,227.91,291.33,230.5,288.21,230.76Z"/><path class="cls-13" d="M306.28,211.49q0-6.74,0-13.48c2,2.93.49,6.68,2.22,9.67C307.89,209,307.67,210.61,306.28,211.49Z"/><path class="cls-14" d="M270.09,138.2a124.38,124.38,0,0,0,13,19.41c2.29,2.76.72,5.24-1.41,7.44-6.18,6.4-13.15,11.87-20.23,17.21-8.63,2.49-17.34,4.65-26.07,6.73-4.67,1.11-7-1-5-4.82,5.88-11.26,10.3-23.23,16.85-34.15,1.55-1,3.12-.29,4.69-.08,4.35,2.86,8.72,4.18,13.19.2,4.14-2.66,3.66-6.87,3.68-10.92A2.52,2.52,0,0,1,270.09,138.2Z"/><path class="cls-15" d="M240.94,192l2.31-.11a4.37,4.37,0,0,1,1.09-.48c12.24-2.37,16.42.62,17.76,13.35a51.78,51.78,0,0,1,.24,9.41c-.57,7.5-2.87,9.22-10.62,8.1-6.12-1.31-11.37-4.6-16.84-7.37-3.77-2.41-6.69-5.77-9.6-9.06-3.26-3.67-2.71-6.12,1.62-8.62S236.52,194.48,240.94,192Z"/><path class="cls-16" d="M213,172.59q3-6.65,6.08-13.3a104.42,104.42,0,0,1,14-18.83c1.17-1.27,2.51-3.08,4.56-1.55,1.73,1.29,1.32,3.07.61,4.92-5,12.93-12.63,24.56-18.11,37.25-.84,1.94-2.39,4.71-5.64,3.65-2.95-1-2.1-3.58-2.07-5.65S211.79,174.66,213,172.59Z"/><path class="cls-6" d="M213,172.59c.73,3.33-2,8.72,2,9.63s4.6-4.82,6-7.87c4.53-9.65,10.83-18.4,14.45-28.49.59-1.65,1.82-3.18.88-5.83-8.12,4.52-11.25,13.28-17.32,19.26,3.75-9.38,10.33-16.71,17.28-23.74,1.33-1.35,3.17-2,5-.81,2,1.33,1.23,3.28.54,4.92-2.29,5.38-4.58,10.77-7.13,16-4.94,10.15-10,20.21-15.13,30.28-.88,1.74-1.78,4.09-4.2,3.74-2.76-.4-2.94-3.17-3.2-5.24C211.7,180.49,211.06,176.43,213,172.59Z"/><path class="cls-6" d="M248.37,150.41q-7.6,15.78-15.21,31.55c-.76,1.59-2.18,3.33-.88,5,1.49,2,3.68.91,5.61.52,7.88-1.6,15.47-4.5,23.54-5.27-9.22,4.25-19.23,5.82-29,8.17-4.79,1.15-6.31-1.29-4.16-5.89,4.52-9.67,8.68-19.57,14-28.82,3.93-6.88,2.15-15.27,7-21.65,1.19-2.34,3.47-3,5.69-3.75,4.09-.46,8.19,2.21,12.29,0,4.33,1.37,3.08,4.81,2.9,7.84a4.78,4.78,0,0,0-.38.79c-3.81,1-7.37-1-11.15-.88-7.28.18-9.47,2.21-9.43,9.6A3.25,3.25,0,0,1,248.37,150.41Z"/><path class="cls-6" d="M251.72,222.29c5.89.47,8.25-2.58,8.64-8.14a35.34,35.34,0,0,0-2.62-16.38c-2.12-5.11-5-8.1-10.91-6a12.48,12.48,0,0,1-3.58.14c15.71-6.13,15.61-6.43,19.91,9.52,1.12,4.15.84,8.42.65,12.64C263.41,222.91,260.29,225,251.72,222.29Z"/><path class="cls-17" d="M287.15,141.5c-2.74.12-5.47-4.45-4.3-7.19,1.1-2.57,9.89-7,12.39-6.21a2.16,2.16,0,0,1,1.76,2.63C296.7,133.2,289.25,141.4,287.15,141.5Z"/><path class="cls-18" d="M256.82,133.65l-7.6.42c-1.46-2.16-2.85-4.31-5.3-5.61-1.62-.87-3-2.35-2.27-4.43.87-2.39,3.12-2.43,5.11-2.06,4.34.8,8.71,1.65,12.24,4.66C258.41,129,258,131.46,256.82,133.65Z"/><path class="cls-19" d="M216.48,150.7a108.74,108.74,0,0,1,12.18-27.86l1.26,2.5c2.57,2.47.7,4.47-.42,6.85-1.8,3.81-5.53,6.67-5.61,11.31C223,147.48,221.23,150.64,216.48,150.7Z"/><path class="cls-6" d="M223.89,143.5c-2.74-2-.38-4,.31-5.75,1.68-4.23,3.79-8.28,5.72-12.41,1-1.35,2.27-1.77,3.5-.38a4.21,4.21,0,0,1,.24,5.57C230.5,134.92,227.16,139.18,223.89,143.5Z"/><path class="cls-20" d="M256.82,133.65c-.95-.26-1.9-.58-2.87-.75-1.48-.25-2.87-.79-3-2.4-.14-1.78,1.67-2.11,2.84-2.58a36.05,36.05,0,0,1,5.21-1.29,24.06,24.06,0,0,1,8.19,3.73c.85,2.14,1.12,3.92-2.14,3.72C262.31,133.91,259.57,133.79,256.82,133.65Z"/><path class="cls-6" d="M240.94,192c-1.71,2.27-4.37,2.73-6.81,3.57-12,4.16-12.36,5.63-3.28,14.87,1.41,1.43,2.69,3,4,4.46-5.07-1.65-8-5.87-11.11-9.68-2.6-3.18-2-6.21,1.85-8.39C230.41,194.15,235.61,192.92,240.94,192Z"/><path class="cls-21" d="M288.05,149.75c-.31.69-.44,1.61-1,2-.93.73-1.89.13-2.57-.64a22.83,22.83,0,0,1-2.17-2.83c-1.63-2.58-4.63-4.46-4.22-8.07a1.87,1.87,0,0,1,1.5-.31C283.06,142.56,286.57,145.18,288.05,149.75Z"/><path class="cls-6" d="M296.49,176.35c-7.9-8.78-7.87-8.74-17.4-1.59-2.52,1.89-4.78,4.23-7.94,5.16,4.13-5.22,9.65-8.87,14.79-12.94,2.38-1.89,4.5-1.3,6.19,1C294,170.49,296.05,173,296.49,176.35Z"/><path class="cls-22" d="M236,229.55l-3.57-1.26-3.67-3.63c-1.1-2.73.27-3.41,2.49-2.6,2.78,1,5.68,1.57,8.44,2.62,3.31,1,6.74,1.67,9.73,3.55a32.13,32.13,0,0,1-10.09-1.2C237.27,226.56,234.93,225.9,236,229.55Z"/><path class="cls-6" d="M217.3,204.84a6,6,0,0,1,4.94,4.31c.3,1-.21,2.31-1.38,2-2.43-.72-4.94-1.75-5.64-4.57C215,205.45,216,204.86,217.3,204.84Z"/><path class="cls-23" d="M239.65,224.68c-3.65,1.15-7.28-4-10.93,0-1.55-1.19-3.4-2.12-4.05-5.84Z"/><path class="cls-24" d="M233.56,101.18a24.08,24.08,0,0,1,3.67,12.08C234.36,109.73,234,105.44,233.56,101.18Z"/><path class="cls-25" d="M266.34,152.61a13.87,13.87,0,0,1-14.63,0,10,10,0,0,1-2.56-9.3c.81-3.86,2.8-6.17,7-5.83,3.38.27,6.93-.83,10.12.84C271.83,141.21,271.8,146.81,266.34,152.61Z"/><path class="cls-26" d="M266.34,152.61c1.7-3.41,5.15-6.38,1.65-10.8s-8.31-3.33-12.72-2.89c-4,.39-4.81,3.83-4.67,7.23a46.81,46.81,0,0,0,1.11,6.47l-3.34-2.21a12.81,12.81,0,0,1-.45-8.74c1-3.77,2.89-6,7.1-5.53,5,.52,10.36-1,14.69,2.85C273,146.38,272.54,148.28,266.34,152.61Z"/><path class="cls-27" d="M259,139.84c4.21.08,7.83,1,7.45,5.08-.36,3.75-4,5.54-7.63,5.45-3.12-.07-6.3-1.32-6.22-5.16C252.69,140.83,255.73,139.52,259,139.84Z"/><path class="cls-28" d="M164.44,239.35c-19.28,3.59-36.83-7.91-39.35-29.17a84.66,84.66,0,0,1,7.78-47.32,37.25,37.25,0,0,1,6.23-9c6.09-6.57,14.94-6.68,23.2-.67a64.87,64.87,0,0,1,15.71,17c5.63,8.48,10.26,17.46,12.75,27.34C195.8,217.56,185.15,235.43,164.44,239.35Z"/><path class="cls-29" d="M349.73,239.66c-14.91-.15-26.32-11.31-25.07-27.54A64.33,64.33,0,0,1,337.41,178a28.46,28.46,0,0,1,6-5.78c5.51-4,12.12-2.79,17.4,2.91a49.36,49.36,0,0,1,9.22,15,67.51,67.51,0,0,1,5.5,22.27C376.31,228,365.75,239.78,349.73,239.66Z"/></svg>