<svg id="Layer_1" data-name="Layer 1" xmlns="http://www.w3.org/2000/svg" viewBox="0 0 500 300"><defs><style>.cls-1{fill:#f2f2f2;}.cls-2{fill:#a168a8;}.cls-3{fill:#679ed5;}</style></defs><rect class="cls-1" x="-138.74" y="-97.06" width="771.78" height="475.69"/><path class="cls-2" d="M303.4,82.21v6.28a18.61,18.61,0,0,1-18.61,18.61V91.51H258a42.85,42.85,0,0,0-42.84,42.84v41.73a18.61,18.61,0,0,1-18.6,18.61V82.21a9.29,9.29,0,0,1,9.3-9.3h23.86A12.91,12.91,0,0,1,242.66,60h14.68a12.9,12.9,0,0,1,12.91,12.91H294.1a9.29,9.29,0,0,1,9.3,9.3Z"/><path class="cls-3" d="M303.4,118.22h0V230.7h0a9.3,9.3,0,0,1-9.3,9.3H205.9a9.3,9.3,0,0,1-9.3-9.3h0v-6.29a18.61,18.61,0,0,1,18.61-18.61h0v15.59H242a42.84,42.84,0,0,0,42.84-42.84V136.83A18.61,18.61,0,0,1,303.4,118.22Z"/></svg>