<svg id="Layer_1" data-name="Layer 1" xmlns="http://www.w3.org/2000/svg" viewBox="0 0 500 280"><defs><style>.cls-1{fill:#010101;}.cls-2,.cls-5{fill:#613310;}.cls-2,.cls-4{fill-rule:evenodd;}.cls-3{fill:#fedc91;}.cls-4{fill:#d28950;}</style></defs><path class="cls-1" d="M102.27,161.08a4.59,4.59,0,0,1-2.38-.6,4.25,4.25,0,0,1-.59-2.08V125.06a3.46,3.46,0,0,1,.59-2.08,2.92,2.92,0,0,1,2.38-.89h14c5.36,0,9.23,1.19,11.91,3.27A13.68,13.68,0,0,1,132,135.48c0,4.46-1.19,7.74-3.87,10.12-2.38,2.08-6.55,3.27-11.91,3.27H111.2v9.23a3.42,3.42,0,0,1-.61,2.08c-.62.6-1.24.6-2.47.6h-5.85Zm14.58-21.14a7.2,7.2,0,0,0,3.57-1.56c.89-.9,1.19-2.09,1.19-3.87s-.3-3-1.19-3.87-2.09-1.19-3.57.38H111.2v8.92Z"/><path class="cls-1" d="M148.11,162a11,11,0,0,1-8.63-3.57,14.44,14.44,0,0,1-3.28-9.82,15.09,15.09,0,0,1,2.09-8.34,16.49,16.49,0,0,1,6.25-5.65,23.31,23.31,0,0,1,9.23-2.09,30.44,30.44,0,0,1,7.73.9,22.7,22.7,0,0,1,6.25,2.68V159a2.28,2.28,0,0,1-.29,1.49,2.23,2.23,0,0,1-1.49.3H160c-.3,0-.9,0-.9-.3l-.59-.59-.9-1.79a13.21,13.21,0,0,1-9.52,3.87Zm3-8.71a4.76,4.76,0,0,0,3.57-1.19,3.47,3.47,0,0,0,1.19-3v-8.93a7.11,7.11,0,0,0-2.68-.59,5.54,5.54,0,0,0-4.76,2.08,8.88,8.88,0,0,0-1.79,5.95C146.62,151.17,148.11,153.26,151.09,153.26Z"/><path class="cls-1" d="M173.71,161.08a4.56,4.56,0,0,1-2.38-.6,2.49,2.49,0,0,1-.6-2.08V135.72a2.09,2.09,0,0,1,.3-1.44,2.22,2.22,0,0,1,1.47-.29h5.89c.59,0,.89,0,.89.29.29,0,.29.29.59.58l.29,1.72a9.62,9.62,0,0,1,4.13-2.3,18,18,0,0,1,5.89-.86,10.41,10.41,0,0,1,7.37,2.59,9.83,9.83,0,0,1,2.95,7.49v14.69a3.3,3.3,0,0,1-.59,2c-.3.58-1.18.58-2.36.58h-4.5s-1.79-1-2.39-1.27c-.59-.6-.59-1.19-2.07-2.08V142.84c1.48-1.19,1.18-2.08.59-2.38a2.93,2.93,0,0,0-2.39-.89,3.59,3.59,0,0,0-2.67.89,14.9,14.9,0,0,0-1.48,2.38v14.29a1.74,1.74,0,0,1,0,2.08c-.3.6-2.38,1.57-2.38,1.57h-6.54Z"/><path class="cls-1" d="M221.92,161c-5.36,0-9.53-1.19-12.5-3.87Q205,153.56,205,146.41a13.82,13.82,0,0,1,2.08-7.74,13.51,13.51,0,0,1,5.66-5.06,21.78,21.78,0,0,1,8.93-1.78,20.64,20.64,0,0,1,6.55.89,12.06,12.06,0,0,1,4.76,2.38c.3.3.6.6.6.89s-.3.6-.6,1.2l-2.38,4.16c-.3.6-.6.9-.89.9s-.6-.3-1.19-.6a14.06,14.06,0,0,0-3-1.49,10.61,10.61,0,0,0-3.28-.59,6.76,6.76,0,0,0-4.76,1.78,8.08,8.08,0,0,0,0,10.12,6.29,6.29,0,0,0,4.76,1.79,10.59,10.59,0,0,0,3.28-.6,13.6,13.6,0,0,0,3-1.49c.59-.29.89-.59,1.19-.59s.59.3.89.89l2.68,4.47a1.08,1.08,0,0,1,.3.89c0,.3-.3.6-.6.89a21.8,21.8,0,0,1-5.36,2.38C226.68,160.7,224.6,161,221.92,161Z"/><path class="cls-1" d="M249.31,162a11,11,0,0,1-8.63-3.57,14.49,14.49,0,0,1-3.28-9.82,15.09,15.09,0,0,1,2.09-8.34,16.49,16.49,0,0,1,6.25-5.65A23.31,23.31,0,0,1,255,132.5a30.44,30.44,0,0,1,7.73.9,22.9,22.9,0,0,1,6.26,2.68V159a1.37,1.37,0,0,1-1.79,1.79h-5.95c-.3,0-.9,0-.9-.3l-.59-.59-.89-1.79a11.58,11.58,0,0,1-3.87,2.68A10.7,10.7,0,0,1,249.31,162Zm3-8.71a4.74,4.74,0,0,0,3.57-1.19,3.47,3.47,0,0,0,1.19-3v-8.93a7.11,7.11,0,0,0-2.68-.59,5.54,5.54,0,0,0-4.76,2.08,8.88,8.88,0,0,0-1.79,5.95C247.52,151.17,249,153.26,252.29,153.26Z"/><path class="cls-1" d="M305.83,158.76a1.09,1.09,0,0,1,.28.87,1,1,0,0,1-1.15,1.15h-9.79c-.29,0-.58-.29-.87-.58l-7.49-10.37v8.27a3.36,3.36,0,0,1-.61,2.08c-.61.6-1.22.6-2.44.6H278a4.79,4.79,0,0,1-2.44-.6,4.15,4.15,0,0,1-.61-2.08v-33a3.38,3.38,0,0,1,.61-2.08,3,3,0,0,1,2.44-.89h5.8a3,3,0,0,1,2.44.89,2.46,2.46,0,0,1,.61,2.08v19.3l7.21-9.5c.28-.29.57-.58.86-.58s.58-.29,1.15-.29h8.64a1.23,1.23,0,0,1,.87,2L296,147Z"/><path class="cls-1" d="M323.42,160.48a26.06,26.06,0,0,1-8.64-1.49,15.61,15.61,0,0,1-5.95-4.76,13.09,13.09,0,0,1-2.08-7.74c0-4.76,1.49-8.63,4.16-11,2.68-2.68,6.85-3.87,11.91-3.87s8.93,1.19,11.31,3.87c2.68,2.38,3.87,6,3.87,10.42,0,1.78-.89,3-2.38,3H317.76a4.42,4.42,0,0,0,1.79,3.87c1.19.9,3.27,1.19,5.65,1.19a14.91,14.91,0,0,0,3.87-.29c1.19-.3,2.08-.9,3.28-1.19a2.26,2.26,0,0,1,.89-.3c.3,0,.59.3.89.59l2.08,3.58a1.07,1.07,0,0,1,.3.89c0,.3-.3.59-.59.89a22.35,22.35,0,0,1-5.36,2.38A56.65,56.65,0,0,0,323.42,160.48Zm4.46-17.56c0-1.49-.3-2.68-1.19-3.27-.89-.9-2.08-1.19-3.87-1.19s-3,.29-3.87,1.19a4.06,4.06,0,0,0-1.19,3.27Z"/><path class="cls-1" d="M357.94,161a45.77,45.77,0,0,1-9.22-.9,18.21,18.21,0,0,1-6.85-3,1.58,1.58,0,0,1-.89-1.19,1.13,1.13,0,0,1,.29-.9l2.68-4.46c.3-.6.6-.6.9-.6a1.09,1.09,0,0,1,.89.3,23.64,23.64,0,0,0,4.76,2.09,17,17,0,0,0,5.36.89,6.78,6.78,0,0,0,3.87-.89,2.91,2.91,0,0,0,1.19-2.68,3.13,3.13,0,0,0-1.49-2.68,23.69,23.69,0,0,0-5.36-2.38,30.83,30.83,0,0,1-8.93-4.77,9.67,9.67,0,0,1-3.27-7.44,10.18,10.18,0,0,1,4.17-8.63c2.68-2.08,6.25-3,10.71-3a29.71,29.71,0,0,1,8,.9,20,20,0,0,1,5.65,2.38c.6.59.9.89.9,1.49a1.09,1.09,0,0,1-.3.89l-2.68,4.46c-.3.6-.59.6-.89.6a1.07,1.07,0,0,1-.89-.3c-2.09-1.49-4.77-2.08-8-2.08a6.78,6.78,0,0,0-3.87.89,2.91,2.91,0,0,0-1.19,2.68,4.36,4.36,0,0,0,.59,2.08c.6.6,1.19.9,1.79,1.49.89.3,2.08.9,3.57,1.49l1.19.3c2.68,1.19,5.06,2.08,6.55,3.27a9.67,9.67,0,0,1,3.87,3.87,10.24,10.24,0,0,1,1.19,5.36,9.25,9.25,0,0,1-3.87,8C366.58,159.81,362.71,161,357.94,161Z"/><path class="cls-1" d="M385.27,160.78c-.59,0-.89,0-1.18-.29a1.46,1.46,0,0,1-.59-1.15l-7.39-23.91v-2.11s0-.9.88.67h7.44c.6-1.57.9-1.57,1.19-1.27a2.33,2.33,0,0,1,.6.89l3,13.1,3.87-10.42c.29-.59.29-.89.59-.89a3.44,3.44,0,0,0,1.19-1.41h3.57a3.6,3.6,0,0,0,1.19,1.41c.3.3.3.59.6.89l3.87,10.42,3.27-13.1c0-.29.3-.59.6-.89s.89,1.27.89,1.27h7.76c.89,0,1.18.29,1.18.87v.57l-7.39,23.91c-.29.58-.29.86-.59,1.15s-.59.29-1.18.29H403c-.59,0-.88,0-1.18-.29a1.49,1.49,0,0,1-.59-1.15l-3.84-10.08-3.84,10.08c-.3.58-.3.86-.59,1.15s-.6.29-1.19.29Z"/><path class="cls-1" d="M430.88,162a11,11,0,0,1-8.63-3.57,14.44,14.44,0,0,1-3.28-9.82,15.17,15.17,0,0,1,2.08-8.34,16.52,16.52,0,0,1,6.26-5.65,23.27,23.27,0,0,1,9.22-2.09,30.47,30.47,0,0,1,7.74.9,22.83,22.83,0,0,1,6.25,2.68V159a2.22,2.22,0,0,1-.3,1.49c-.29.3-.89.3-1.48.3h-6a1.09,1.09,0,0,1-.89-.3l-.59-.59-.9-1.79a11.38,11.38,0,0,1-3.87,2.68A10.66,10.66,0,0,1,430.88,162Zm5.95-8.71a4.74,4.74,0,0,0,3.57-1.19,3.44,3.44,0,0,0,1.19-3v-8.93a7,7,0,0,0-2.68-.59,5.54,5.54,0,0,0-4.76,2.08,8.88,8.88,0,0,0-1.78,5.95C432.07,151.17,433.56,153.26,436.83,153.26Z"/><path class="cls-1" d="M459.61,172.69a5.06,5.06,0,0,1-2.51-.6,4.16,4.16,0,0,1-.62-2.08V137.27a20.43,20.43,0,0,1,6.89-3,27.77,27.77,0,0,1,8.46-1.19c12.22,0,18.17,4.76,18.17,14.58q0,6.7-3.76,10.72c-2.51,2.68-6.27,3.87-11,3.87a16.45,16.45,0,0,1-3.76-.6,9.41,9.41,0,0,1-3.13-1.19V170a3.31,3.31,0,0,1-.63,2.08c-.62.6-1.25.6-2.5.6Zm12.94-19.43c1.78,0,3-.6,3.57-1.79a8.52,8.52,0,0,0,1.19-5.06,8.82,8.82,0,0,0-1.49-5.36,6.16,6.16,0,0,0-4.46-1.48,7.48,7.48,0,0,0-3,.59v8.93a4.07,4.07,0,0,0,4.17,4.17Z"/><path class="cls-2" d="M23.39,114.94a9.77,9.77,0,0,1,13.53-10.75,10.16,10.16,0,0,1,5.82,9.4v11.47h8.93V113.62a10.16,10.16,0,0,1,5.86-9.42A9.83,9.83,0,0,1,71.2,114.94l-2.71,14c9,3.87,15.92,10.72,15.92,19.35v4.49c0,7.26-4.84,13.31-11.49,17.24-6.66,4.24-15.73,6.66-25.71,6.66S28.15,174.25,21.49,170C14.84,166.08,10,160,10,152.77v-4.49c0-8.63,6.85-15.48,15.78-19.35ZM65.3,130.72l3-16.37c1.12-5.12-4.18-9.79-9.71-7.4a7,7,0,0,0-4,6.46v14.93c-.92,0-2.13-.3-3-.3H50a20,20,0,0,0-4.22.3c-.9,0-2.11.29-3,.29V113.68a6.94,6.94,0,0,0-4-6.44,6.78,6.78,0,0,0-9.58,7.4l3,16.67C22.57,134.88,16,141.43,16,148.87V154c0,11.11,14.62,20.17,32.74,20.17S81.44,165.15,81.44,154v-5.17C81.74,140.84,75,134.29,65.3,130.72Z"/><path class="cls-3" d="M81.72,154.83c0,9.74-14.88,19-33.33,19S15.05,164.57,16,153.26v-4.39H81.44v6Z"/><path class="cls-4" d="M25.52,112.49c-1.24-5.76,5-11,11.1-7.35a6.89,6.89,0,0,1,3.15,6v16.59a60.71,60.71,0,0,1,7.59-.64c2.54,0,5.07.32,7.29.32V111.1a6.9,6.9,0,0,1,3.14-6c6.09-3.64,12.34,1.59,11.11,7.35L65.73,129.9c10.45,3.8,17.42,10.77,17.42,18.68,0,12-15.84,21.85-35.47,21.85s-35.46-9.81-35.46-21.85c0-7.91,7-14.88,17.1-18.68Z"/><path class="cls-5" d="M39.16,146.71c0,3-1.79,5.66-3.57,5.66S32,150,32,146.71c0-3,1.78-5.66,3.57-5.66S39.16,143.44,39.16,146.71Z"/><path class="cls-5" d="M64.76,146.71c0,3-1.79,5.66-3.57,5.66-2.09,0-3.58-2.39-3.58-5.66,0-3,1.79-5.66,3.58-5.66S64.76,143.44,64.76,146.71Z"/></svg>