<?xml version="1.0" encoding="UTF-8"?> <svg xmlns="http://www.w3.org/2000/svg" id="Layer_1" data-name="Layer 1" viewBox="0 0 500 250"><defs><style>.cls-1{fill:#e3792b;}.cls-2{fill:#e47728;}.cls-3{fill:#fbd24f;}</style></defs><path class="cls-1" d="M136,38.13a9,9,0,0,1,2.14.59c6.57,3.67,13.1,7.41,19.65,11.1,4.8,2.71,9.62,5.36,14.41,8.08,10.43,5.94,20.81,11.95,31.26,17.86,9.43,5.33,18.92,10.56,28.36,15.84,4.46,2.5,8.93,5,13.32,7.57,1.93,1.16,3.3,1.41,5.36-.23,9.93-7.85,20-15.47,30.11-23.14,8.63-6.57,17.44-12.89,25.91-19.69,6.8-5.44,13.91-10.49,20.63-16,3.57-2.94,7.43-5.66,11.21-8.38,1.59-1.16,1.61-1.25.34-2.92-1.73-2.3-3.63-4.47-5.34-6.78s-.6-5.07,2.27-5.43c1.29-.15,2.51-.38,3.76-.64,7.57-1.54,15.23-2.68,22.77-4.42,2.36-.54,4.8-.82,7.19-1.29,1.4-.29,2.95-.49,4.25.72a5.27,5.27,0,0,1,1.11,5.89c-3,6.8-5.25,13.87-8,20.74-1.43,3.53-2.67,7.14-3.91,10.73a6.69,6.69,0,0,1-1.71,3c-1.82,1.62-3.14,1.49-4.58-.34-1.71-2.18-3.53-4.29-5.16-6.53-.64-.91-1-.75-1.74-.23-6.32,4.32-12.72,8.52-19,12.89-7.29,5.16-14.87,9.85-22.14,15-5.61,4-11.51,7.61-17.22,11.41-4.42,2.94-8.86,5.87-13.18,9-3,2.17-6.2,4.11-9.22,6.29-5.35,3.87-11,7.33-16.43,11a9,9,0,0,0-1.58,1.07c-1.53,1.59-3,1.12-4.58.07q-6.1-4-12.25-8c-5.36-3.47-10.75-6.88-16.12-10.36-10.45-6.76-20.76-13.7-31.29-20.36-12.9-8.19-25.71-16.59-38.55-24.91-4.26-2.76-8.78-5.12-12.78-8.28C135.33,38.48,135.69,38.32,136,38.13Z"></path><path class="cls-2" d="M144.3,118V59c0-1-.51-2.51.42-3s1.84.7,2.73,1.29c5.28,3.37,10.57,6.74,15.9,10,1.29.81,2.05,1.63,1.63,3.3a12.06,12.06,0,0,0,0,2.88V176.6c0,4.32.52,3.59-3.79,3.72-3.23.1-6.39-.09-9.6.29-1.69.2-3.52,0-5.3.12-1.29.11-2.05-.47-1.94-1.88V118Z"></path><path class="cls-2" d="M352.5,117.9v60.88c.09,1.16-.51,1.48-1.55,1.47H334.19c-2,0-2.46.3-2.36-2.23.08-1.61,0-3.23,0-4.83V71.71c0-.65,0-1.29,0-1.94a2,2,0,0,1,1.16-2c5.71-3.63,11.37-7.34,17.05-11,.36-.24.75-.4,1.12-.65,1-.61,1.29-.06,1.29.89v60.89Z"></path><path class="cls-3" d="M175.85,127.76V79.12c0-1.05-.47-2.58.38-3,1-.55,2,.64,3,1.33q3,2.1,6.08,4c2.92,1.82,5.75,3.78,8.71,5.5,2.13,1.23,2.58,2.74,2.58,4.94q-.13,31.89-.07,63.81V177c0,.75,0,1.5,0,2.25a1.47,1.47,0,0,1-1.36,1.59,1.13,1.13,0,0,1-.26,0c-3.73-.14-7.47.15-11.22-.17-1.84-.16-3.76-.82-5.72.09-1.1.51-1.94-.36-2-1.71-.05-.54,0-1.08,0-1.61V127.81Z"></path><path class="cls-3" d="M321.55,128v50.93c.05.94-.35,1.35-1.29,1.34H302.21c-1,0-1.34-.41-1.29-1.34,0-.75,0-1.51,0-2.25v-86a3.56,3.56,0,0,1,1.87-3.59c5.62-3.51,11.34-6.88,16.72-10.76,1.41-1,2-.65,2.09,1.15,0,1.18,0,2.37,0,3.55Z"></path><path class="cls-3" d="M206.84,137.87V98.6c0-.91-.52-2.16.44-2.66s2,.43,2.85,1c5.44,3.62,10.92,7.18,16.59,10.42a2.26,2.26,0,0,1,1.29,2.31c0,1.61,0,3.22,0,4.83V177.6c0,3.71.35,3.22-3.28,3.22H209.9c-3,0-3.1-.13-3.1-3Q206.85,157.83,206.84,137.87Z"></path><path class="cls-3" d="M290,138v40.55c-.09,1.93-.38,2.24-2.26,2.25q-8,.06-16.12,0c-1.93,0-2.23-.34-2.29-2.21-.05-1.5,0-3,0-4.51V112c0-2.18.34-3.68,2.48-5,5.49-3.31,10.75-7,16.12-10.53A5.21,5.21,0,0,1,289,95.9a.62.62,0,0,1,.83.24.6.6,0,0,1,.07.32c.08,1,.06,1.94.06,2.9V138Z"></path><path class="cls-1" d="M224.85,211.79v25.43c0,2.22,0,2.25-2.3,2.29q-3.06,0-6.12,0c-1.83,0-1.83-.06-1.88-2V192.41c-.11-1.29.26-1.94,1.76-1.9,2.57.12,5.15.05,7.73,0a2,2,0,0,1,2,1.21c2.48,5,5.45,9.81,8.34,14.63,1.94,3.27,3.92,6.54,5.84,9.83a3.09,3.09,0,0,0,1,1.24c.5.31.89.09,1-.37a13.94,13.94,0,0,0,.07-2.24V191.66a1,1,0,0,1,1.2-1.11h.33a77.2,77.2,0,0,1,8.33.16c.89,2.58.37,5.28.38,7.91.07,12.45,0,24.9,0,37.35v2.25c0,.75-.21,1.29-1.05,1.29h-8.69c-1.05,0-1.4-.73-1.85-1.5-2.08-3.58-4.21-7.13-6.32-10.69q-4.46-7.55-8.9-15.08A8,8,0,0,0,224.85,211.79Z"></path><path class="cls-3" d="M238.39,148.28V118c.05-.91.53-1.07,1.29-.65a15.6,15.6,0,0,1,1.38.77c1.54,1.14,3.35,1.94,4.81,3.06,1.88,1.48,3.26.89,4.89-.11,2.07-1.29,4.16-2.53,6.3-3.66,1.46-.78,1.89-.48,1.94,1.13,0,1.29,0,2.58,0,3.87v54.46c0,.65,0,1.29,0,1.94-.13,1.66-.43,1.75-2.14,1.6a38.36,38.36,0,0,0-10.21.15,6.38,6.38,0,0,1-3.75-.09,3,3,0,0,0-1.84-.07c-2,.38-2.67-.2-2.67-2.13v-30Z"></path><path class="cls-1" d="M149.89,190.55c1.55.21,3.71-.74,5,.45,1.16,1,1.52,3,2.14,4.56q5.24,13.31,10.43,26.62c.2.47.48,1.11,1,1s.7-.71.89-1.24q2.73-7.64,5.52-15.24c1.8-4.87,3.68-9.71,5.43-14.6.39-1.08.92-1.6,2-1.58h8.05c1.06,0,1.51.13,1.06,1.47-.7,2.11-1.63,4.13-2.3,6.26-1,3.33-2.67,6.45-3.77,9.77-1.63,4.93-3.63,9.71-5.4,14.59-1.84,5.07-3.71,10.14-5.49,15.24-.37,1.07-.86,1.67-2,1.61h-.65l-8.38-.14a77.24,77.24,0,0,1-3.17-7.58q-5.49-13.72-11-27.44c-1.53-3.87-3-7.68-4.51-11.54-.84-2.2-.8-2.23,1.61-2.26C147.49,190.52,148.57,190.55,149.89,190.55Z"></path><path class="cls-2" d="M295.76,235a.63.63,0,0,1-.58.68,2.07,2.07,0,0,0-2.3,1.4c-.65,1.6-1.76,1.85-3.28,1.83-8.81,0-17.61,0-26.43,0-2.68,0-2.86-.18-2.86-3v-40a7.79,7.79,0,0,1,.25-2.2c.4-1.39.93-2,2.58-2,8.8.1,17.61.08,26.43,0a11.88,11.88,0,0,1,3.38.68,11.8,11.8,0,0,1,0,4.51c-.29.1-.72.1-.83.29a17.51,17.51,0,0,1-2.52,2.5c-.48.36-1.29.22-1.51.92a72.2,72.2,0,0,1-10.4,0c.41-1.42-.7-1.89-1.61-2.27-1.61-.68-2.11,1.1-3.22,1.67a15.16,15.16,0,0,0-1.94-1.64c-.55-.34-1.34-.36-1.55.45-.52,2-1.88,3.87-1.38,6.16a3.59,3.59,0,0,1-.52,2.76c-.27.42-.36,1.65.18,1.74,1.41.22,2.17,1.67,3.67,1.63,2.25-.06,4.51,0,6.76,0,.72,0,.87-.47.9-1a2.42,2.42,0,0,1,1.94,0c-.07,1,1,1.63.68,2.68a.64.64,0,0,0,.41.81.5.5,0,0,0,.24,0c.54,0,.59-.46.64-.89.09-1.29,1.29-1.33,2.07-1.43s1,.78,1.21,1.56.27,2.19,1.75,2.16l.09.73c0,3.8,0,3.8-3.63,3.8H271.87c-3.6,0-3.87.26-3.82,3.7,0,1.24-.43,2.58.5,3.71a.6.6,0,0,1,0,.58c-1.76,1-.27,1.81.39,2.06,1.15.41,1.85,2.21,3.29,1.4a6.37,6.37,0,0,1,3.41-.48c6.32,0,12.62,0,18.93,0h2.25a.79.79,0,0,1,.76.45c.18.35-.09.64-.35.78C295.85,232.42,295.73,233.65,295.76,235Z"></path><path class="cls-3" d="M301.57,238.27a12.73,12.73,0,0,1,3.93-4.51c1.62-1.15,3.44-2.51,3.33-5.16,0-.77,1-1.89,1.61-2.79,1.24-1.84,2.63-3.59,4-5.34,2.11-2.72,5.31-3.87,8.07-5.66a53.59,53.59,0,0,1,6.45-3.29c1.93-.92,3.48-1.69,5.48,0,.67.58,1.57.34.53,1.42a1.88,1.88,0,0,0-.08,2.63c1.42,1.71,2.32,3.79,4,5.34a30.66,30.66,0,0,1,6.49,8.59,8.59,8.59,0,0,0,1.55,2c1.29,1.39,2.66,2.76,3.11,4.7.17.72,1.64.68,1,1.64-.44.64-1.4.36-2.12.37H338.29a2.46,2.46,0,0,1-2.32-1.18,29.46,29.46,0,0,1-3.92-6.14c-1-2.47-3.45-3.46-5-5.38-.52-.65-1.49-.26-1.93.45a18.58,18.58,0,0,1-5,5.12c-1.5,1.18-3.14,2.78-3.22,5.2,0,1.63-.46,1.93-2.27,1.93C310.46,238.3,306.18,238.27,301.57,238.27Z"></path><path class="cls-1" d="M197.13,214.7V193.42c0-3.17-.25-2.85,3-2.85h5.47a1.57,1.57,0,0,1,1.79,1.31,1.7,1.7,0,0,1,0,.45v46.09c0,.83-.47,1.13-1.21,1.13-2.58,0-5.16-.05-7.74,0-1.22,0-1.36-.65-1.35-1.64v-23.2Z"></path><path class="cls-3" d="M308.46,189.91a27.25,27.25,0,0,0,4.52,0c3.07-.53,4.94,1.53,5.66,3.62,1,3,3.32,4.8,4.88,7.24.72,1.13,2.05,2.14,2.19,3.37.18,1.7-1.88,1.59-2.93,2.28-1.93,1.23-4.26,1.67-6,3.29-.51.46-1-.08-1.38-.41-1.7-1.36-2.73-3.27-4-4.94a24.77,24.77,0,0,0-2-2.44c-3-2.92-5.12-6.48-7.68-9.72a1.7,1.7,0,0,1-.22-.24c-.86-1.36-.65-2,.91-2,2-.07,4.08,0,6.12,0Z"></path><path class="cls-3" d="M352.39,191a1.85,1.85,0,0,1-1.25,2,9.57,9.57,0,0,0-4.1,3.87,5.59,5.59,0,0,1-5.42,2.69c-2.13-.12-4.28.09-6.41,0a3,3,0,0,0-3.16,1.67c-.45,1-1,1.62-2.09,1.62-.6,0-1.08,1-1.69.33-.73-.82.57-.92.64-1.36.54-3.35,2.85-5.54,5-7.79.76-.8.51-2,1.43-2.78,1.51-1.29,2.7-2.16,5-1.49s4.88.15,7.35.15h3.53C352.08,189.87,352.5,190.23,352.39,191Z"></path><path class="cls-1" d="M292.91,192.45a11.88,11.88,0,0,0-3.38-.68c-8.81.06-17.61.09-26.43,0-1.63,0-2.16.58-2.58,2a7.76,7.76,0,0,0-.25,2.19v40c0,2.77.18,3,2.86,3q13.22,0,26.43,0c1.52,0,2.62-.23,3.28-1.83a2.07,2.07,0,0,1,2.3-1.4c-.14,1.65-1.75,2.36-2.37,3.71-.27.59-1,.61-1.72.6H278.63c-5.89,0-11.77.11-17.65-.4-1.85-.16-1.89-.1-1.89-2.05V203.08c0-3.54.06-7.1,0-10.63,0-1.39.37-1.88,1.79-1.87q15.3.07,30.59,0C292.94,190.52,293.44,191,292.91,192.45Z"></path><path class="cls-1" d="M303.29,223.87c.87-2.43,2.74-4,4.65-5.56a87.66,87.66,0,0,1,24.57-13.76c.95-.35,2.12-.61,2.48-1.82.2-.69.78-.56,1.29-.69a30.94,30.94,0,0,1,8.91-.58c-.2.87-.8,1.07-1.34,1.41-1.46.88-2.83,1.87-4.25,2.8s-2.13,2.29-4.22,1.23c-.89-.45-2.58.55-3.87,1a73.5,73.5,0,0,0-25.95,16.92c-1,1-1.34,2.47-2.74,3A8.72,8.72,0,0,1,303.29,223.87Z"></path><path class="cls-1" d="M295.76,235c0-1.29.11-2.55,1.45-3.26.26-.14.54-.43.35-.78a.79.79,0,0,0-.76-.45H275.63a6.37,6.37,0,0,0-3.41.48c-1.44.81-2.15-1-3.29-1.4-.65-.24-2.15-1-.39-2.06a.61.61,0,0,0,0-.57c-.94-1.14-.48-2.47-.51-3.71-.05-3.45.23-3.7,3.83-3.71h12.5c3.65,0,3.65,0,3.61-3.78.9.37.59,1.29.82,1.93.84,2.29.4,2.9-2,2.92-4.17,0-8.38,0-12.53,0-4.56,0-4.47,0-4.51,4.47s.35,4.25,4.26,4.23c7.6-.05,15.21,0,22.82,0a15.54,15.54,0,0,1,1.93,0c.89.11,1.12.94.6,1.35C297.86,231.88,297.51,234,295.76,235Z"></path><path class="cls-1" d="M279,210.09c0,.58-.18,1-.9,1-2.26,0-4.51,0-6.76,0-1.5,0-2.26-1.42-3.67-1.64-.54-.08-.45-1.29-.18-1.73A3.61,3.61,0,0,0,268,205c-.5-2.29.86-4.12,1.38-6.15.21-.82,1-.8,1.55-.45a15.94,15.94,0,0,1,1.94,1.63c1.1-.57,1.6-2.34,3.22-1.66.91.38,2,.84,1.61,2.27-.25.64-.65.53-1.25.4a12,12,0,0,0-6.25.26c-.44.14-.79.23-.65.81.53,2,.22,4,.22,6,0,1.46.61,1.77,1.94,1.78A46.74,46.74,0,0,1,279,210.09Z"></path><path class="cls-1" d="M136,38.13c-.33.19-.69.35-.75.79a60.68,60.68,0,0,1-10.46-6.53c1-.76,1.63-.27,2.28.08,2.58,1.41,5.21,2.78,7.8,4.18A2.08,2.08,0,0,1,136,38.13Z"></path><path class="cls-1" d="M321.37,234.36c-.36,0-.82.06-1-.4s.14-.82.45-1.1.84-.91,1.25-.9c2.34.07,4.19-1.34,6.28-1.93.53-.16,1.14-.28,1.38.3s-.29,1-.64,1.32A20.11,20.11,0,0,1,321.37,234.36Z"></path><path class="cls-1" d="M287.89,215c-1.49,0-1.51-1.28-1.75-2.15s-.55-1.66-1.21-1.57-2,.12-2.07,1.44c0,.42-.09.87-.65.89a.65.65,0,0,1-.67-.62.47.47,0,0,1,0-.23c.28-1.05-.75-1.71-.69-2.67a9.1,9.1,0,0,1,1.26-.18C288,210,286.55,209.15,287.89,215Z"></path><path class="cls-1" d="M288.07,200.66c.25-.71,1-.56,1.51-.92a17.52,17.52,0,0,0,2.52-2.5c.11-.19.54-.2.83-.29.22,1.25.74,2.9-.26,3.59a5.1,5.1,0,0,1-4.25.61C288.27,201.1,288.18,200.83,288.07,200.66Z"></path><path class="cls-3" d="M303.29,223.87a8.58,8.58,0,0,0-.46,4h-1.16C301.38,226.21,301.61,224.74,303.29,223.87Z"></path><path class="cls-1" d="M301.67,227.91h1.19a.91.91,0,0,1-.11.3c-.28.29-.58.57-.87.85A1.2,1.2,0,0,1,301.67,227.91Z"></path></svg> 