<?xml version="1.0" encoding="UTF-8"?> <svg xmlns="http://www.w3.org/2000/svg" id="Layer_1" data-name="Layer 1" viewBox="0 0 500 250"><defs><style>.cls-1{fill:#f9772a;}.cls-1,.cls-2{fill-rule:evenodd;}.cls-2{fill:#2c3742;}</style></defs><path class="cls-1" d="M97.38,151.69l-2.73,18.82-8.19-24.87Zm15.37-13.78-5.58-11L132,136.19Zm54.95,56.8L114.45,144.3l21.63-2.67a49.24,49.24,0,0,0,3.46-18.17c0-27.76-22.85-50.25-51-50.25s-51,22.49-51,50.25,22.85,50.25,51,50.25A51.85,51.85,0,0,0,101.85,172l1.78-18.74,53,50.63-30.3-12.67a79.09,79.09,0,0,1-37.86,9.58c-43.36,0-78.51-34.61-78.51-77.3S45.15,46.15,88.51,46.15,167,80.76,167,123.46a76.05,76.05,0,0,1-13,42.49Z"></path><path class="cls-2" d="M488.64,147.27a18.81,18.81,0,0,1-3.85,6.56,17.37,17.37,0,0,1-6,4.23,19.45,19.45,0,0,1-7.73,1.51,19.23,19.23,0,0,1-7.7-1.51,17.5,17.5,0,0,1-6-4.23,19.34,19.34,0,0,1-3.88-6.56,24.66,24.66,0,0,1-1.4-8.53,24.31,24.31,0,0,1,1.4-8.49,19,19,0,0,1,3.92-6.53,17.38,17.38,0,0,1,6-4.19,19.31,19.31,0,0,1,7.62-1.47,19.62,19.62,0,0,1,7.66,1.47,17,17,0,0,1,6,4.19,19.4,19.4,0,0,1,3.88,6.53,24.55,24.55,0,0,1,1.4,8.49A25.4,25.4,0,0,1,488.64,147.27Zm-10.53-17.85a9,9,0,0,0-14.11,0q-2.52,3.44-2.52,9.32c0,4,.84,7.12,2.52,9.43a8.91,8.91,0,0,0,14.11,0c1.69-2.31,2.53-5.46,2.53-9.43S479.8,131.71,478.11,129.42Zm-38.52-16.34a5.7,5.7,0,0,1-4-1.51,5.21,5.21,0,0,1-1.66-4.07,5.32,5.32,0,0,1,1.66-4.15,5.7,5.7,0,0,1,4-1.51,5.64,5.64,0,0,1,3.93,1.51,5.36,5.36,0,0,1,1.66,4.15,5.24,5.24,0,0,1-1.66,4.07A5.64,5.64,0,0,1,439.59,113.08Zm-18.93,46.41a6,6,0,0,1-4.31-1.66,5.71,5.71,0,0,1-1.73-4.3,5.83,5.83,0,0,1,1.73-4.34,6.25,6.25,0,0,1,8.57,0,5.75,5.75,0,0,1,1.77,4.34,5.63,5.63,0,0,1-1.77,4.3A6,6,0,0,1,420.66,159.49Zm-12.53-17.88h-26a10.39,10.39,0,0,0,3.35,7.35q3,2.61,8.64,2.61a28,28,0,0,0,6.08-.61,25.36,25.36,0,0,0,4.34-1.28l1.2,7.47a13.82,13.82,0,0,1-2.07.79,29.45,29.45,0,0,1-3,.76c-1.13.22-2.35.41-3.66.56a35.09,35.09,0,0,1-4,.23,24.18,24.18,0,0,1-9-1.55,16.77,16.77,0,0,1-6.34-4.3,17.66,17.66,0,0,1-3.7-6.49,26.65,26.65,0,0,1-1.21-8.19,24.84,24.84,0,0,1,1.55-9.13,19.13,19.13,0,0,1,4.11-6.52,16.93,16.93,0,0,1,5.89-3.93,18.23,18.23,0,0,1,6.79-1.32q8.14,0,12.71,5.06t4.57,15.09c0,.5,0,1.07,0,1.7S408.18,141.1,408.13,141.61Zm-9.51-10.3a8.56,8.56,0,0,0-1.55-2.95,7.17,7.17,0,0,0-2.49-2,7.89,7.89,0,0,0-3.5-.72,8.13,8.13,0,0,0-3.7.8,8.34,8.34,0,0,0-2.68,2.07,9.55,9.55,0,0,0-1.7,2.94,16.08,16.08,0,0,0-.83,3.4h17A12,12,0,0,0,398.62,131.31Zm-40.71,27.5a53.27,53.27,0,0,1-8.64.68,23.1,23.1,0,0,1-8.37-1.43,17.38,17.38,0,0,1-6.3-4.12,17.91,17.91,0,0,1-4-6.49,24.75,24.75,0,0,1-1.4-8.56,28.85,28.85,0,0,1,1.17-8.49,18.57,18.57,0,0,1,3.43-6.53,15.32,15.32,0,0,1,5.51-4.18,17.79,17.79,0,0,1,7.47-1.48,17.21,17.21,0,0,1,5.06.68,23.24,23.24,0,0,1,3.77,1.51V101.46l9.13-1.51V157.3A52.51,52.51,0,0,1,357.91,158.81Zm-2.3-30.48a13.74,13.74,0,0,0-3.21-1.55,12.45,12.45,0,0,0-4.26-.72q-5,0-7.28,3.4c-1.54,2.26-2.3,5.33-2.3,9.2q0,6,2.87,9.47a9.76,9.76,0,0,0,7.92,3.44,32.6,32.6,0,0,0,3.73-.19c1-.13,1.88-.27,2.53-.42Zm-49.88,31a29.12,29.12,0,0,1-6.49-.68,13.49,13.49,0,0,1-5-2.19,10.22,10.22,0,0,1-3.25-3.92,13.62,13.62,0,0,1-1.17-6,11.52,11.52,0,0,1,1.32-5.74,10.83,10.83,0,0,1,3.59-3.81,15.54,15.54,0,0,1,5.24-2.11,29.7,29.7,0,0,1,9.4-.46,31.2,31.2,0,0,1,3.54.65v-1.51a11.9,11.9,0,0,0-.37-3,6.35,6.35,0,0,0-1.33-2.53,6.2,6.2,0,0,0-2.49-1.7,10.79,10.79,0,0,0-3.88-.6,34.71,34.71,0,0,0-5.81.45,25.4,25.4,0,0,0-4.3,1.06l-1.14-7.4a36.45,36.45,0,0,1,5.06-1.2,39.84,39.84,0,0,1,7.09-.61,22.43,22.43,0,0,1,7.62,1.13,12.34,12.34,0,0,1,4.95,3.17,11.94,11.94,0,0,1,2.64,5,24.05,24.05,0,0,1,.79,6.37V157.6c-1.41.31-3.53.67-6.38,1.1A66.07,66.07,0,0,1,305.73,159.34Zm7.17-17.81a17.6,17.6,0,0,0-2.19-.45,20.42,20.42,0,0,0-3.17-.23,21.19,21.19,0,0,0-3.05.23,9.57,9.57,0,0,0-2.79.83,5,5,0,0,0-2,1.7,4.67,4.67,0,0,0-.76,2.75q0,3.24,2,4.49a10.51,10.51,0,0,0,5.51,1.24,34.12,34.12,0,0,0,6.41-.45Zm-29.84-15a22.81,22.81,0,0,0-4.64-.42,18.45,18.45,0,0,0-3.21.3,19.63,19.63,0,0,0-2.38.53v31.62H263.7V120.93a51.2,51.2,0,0,1,6.61-1.85,41,41,0,0,1,8.79-.87c.6,0,1.3,0,2.11.12s1.61.17,2.41.3,1.59.28,2.34.45,1.36.34,1.81.49l-1.58,7.7A27.88,27.88,0,0,0,283.06,126.48Zm-35.28,32.93a18.93,18.93,0,0,1-7.05-1.13,10.33,10.33,0,0,1-4.49-3.28,12.9,12.9,0,0,1-2.34-5.21,32.44,32.44,0,0,1-.68-7V108.63l9.13-1.51V119h14v7.63h-14v16.07q0,4.75,1.51,6.79t5.13,2a16.76,16.76,0,0,0,4.41-.53,29,29,0,0,0,3.06-1L258,157.3a35.28,35.28,0,0,1-4.15,1.4A22.91,22.91,0,0,1,247.78,159.41Zm-33.35-2.26a21,21,0,0,1-3.89,1.51,19.58,19.58,0,0,1-12.56-.79,14.66,14.66,0,0,1-5.43-4.19,19.29,19.29,0,0,1-3.36-6.49,28.19,28.19,0,0,1-1.17-8.38,24.29,24.29,0,0,1,1.4-8.48,18,18,0,0,1,4-6.49,17.71,17.71,0,0,1,6.3-4.15,22.26,22.26,0,0,1,8.37-1.48,53.48,53.48,0,0,1,8.75.68,62.37,62.37,0,0,1,6.72,1.44v52.14h-9.13Zm0-30.48a23.93,23.93,0,0,0-2.45-.42,32.23,32.23,0,0,0-3.81-.19,9.78,9.78,0,0,0-7.93,3.44q-2.87,3.42-2.86,9.46c0,3.83.76,6.87,2.3,9.14s4,3.39,7.28,3.39a12.45,12.45,0,0,0,4.26-.72,13.75,13.75,0,0,0,3.21-1.54ZM444.2,158.51h-9.13V119h9.13Z"></path></svg> 