<?xml version="1.0" encoding="UTF-8"?> <svg xmlns="http://www.w3.org/2000/svg" id="Layer_1" data-name="Layer 1" viewBox="0 0 500 250"><defs><style>.cls-1{fill:#e5097f;}.cls-2,.cls-3{fill:#043659;}.cls-3{fill-rule:evenodd;}</style></defs><g id="_Layer_1" data-name=" #Layer_1"><path class="cls-1" d="M490,151.71a8.1,8.1,0,0,1-2.41,5.89,7.78,7.78,0,0,1-5.77,2.46q-4.81,0-8.91-5.24L454,131l-19.2,23.81q-3.92,5.22-8.26,5.22a7.61,7.61,0,0,1-5.91-2.83,9.51,9.51,0,0,1-2.46-6.39q0-4.17,3.62-8.64l19.36-24L421.34,94q-3.33-4-3.33-7.75A8.93,8.93,0,0,1,420.47,80a7.77,7.77,0,0,1,5.94-2.69c2.89,0,5.4,1.35,7.53,4l20.06,24,19.49-23.69q3.33-4.32,7.53-4.32a8.34,8.34,0,0,1,6.3,2.51,9.1,9.1,0,0,1,2.39,6.51c0,2.16-1.16,4.69-3.45,7.55l-19.41,24.29L485.94,142q4.06,5.06,4.06,9.68Z"></path><path class="cls-1" d="M407.48,86.81a9.34,9.34,0,0,1,3,8,14.18,14.18,0,0,1-4.44,8.38l-35,35c4.34,4,7.72,4.62,13.41,4.13s12.85-6.81,15.55-11.92c9.8-18.54,28.86-4.81,13.05,14.12-8.52,9.27-17.28,14.64-30.84,15.37a41.48,41.48,0,0,1-30.29-11.54c-8.61-8-12.62-18.19-12.91-29.62s3.83-21.24,12.94-30a40.24,40.24,0,0,1,28.19-11.53c10.93-.2,20,2.25,27.35,9.57ZM389.37,97.74c-7-6.5-18.43-5.64-26.24,1.66-9,8.42-9,20.1-3.11,27.37l29.35-29Z"></path><path class="cls-2" d="M328,147.87c0,8.12-3.06,12.2-9.19,12.2s-9.2-4.08-9.2-12.2V89.39q0-12.19,9.2-12.2c6.13,0,9.19,4,9.19,12Z"></path><path class="cls-2" d="M328.25,61.55a9.91,9.91,0,0,1-2.79,7.07,9,9,0,0,1-6.8,2.93,9.26,9.26,0,0,1-6.87-2.93,9.8,9.8,0,0,1-2.85-7.07,9.54,9.54,0,0,1,2.85-7,9.31,9.31,0,0,1,6.87-2.87,9.11,9.11,0,0,1,6.74,2.93,9.63,9.63,0,0,1,2.85,6.94Z"></path><path class="cls-2" d="M301.33,86.2A17.55,17.55,0,0,1,300.17,92L278.6,151.32q-3.19,8.75-10.14,8.74T258,150.9L236,91.2a14.45,14.45,0,0,1-.87-5,8.79,8.79,0,0,1,2.39-6.42,8.4,8.4,0,0,1,6.3-2.44q6.51,0,9.12,8.27l15.64,48.78L284.1,84.72c1.54-5,4.49-7.41,8.83-7.41,5.6,0,8.4,3,8.4,8.89Z"></path><path class="cls-2" d="M150.45,86.44q0,4.78-5.21,7.61-5.36,2.25-10.72,4.45-6.51,3-8.54,7.61c-1.16,2.59-1.74,5.79-1.74,11.06v31q0,11.91-9.26,11.92c-6.08,0-9.58-4.08-9.56-12.12l.08-38.54c.71-18.14,21.8-32.19,35.83-32.19a8.92,8.92,0,0,1,6.59,2.53,9.06,9.06,0,0,1,2.53,6.69Z"></path><path class="cls-3" d="M230.24,152.56a6.48,6.48,0,0,1-.94,3.67c-3.79,6.18-16.71,4.88-17.55-3.33l0-.14v-32c0-7.52-1.44-15.93-7.48-21-4-3.38-9-4.55-14.1-4.55a21.41,21.41,0,0,0-15.46,5.92c-8.23,7.88-8.62,28.21,1.16,36.07A21,21,0,0,0,190.31,142c3.27-.16,7,.12,10,1.59a7.59,7.59,0,0,1,4.57,5.94c.33,3.3-1.87,6-4.54,7.69-3.45,2.14-7.87,2.79-11.86,2.68-10.48-.26-19.82-3.37-27.46-10.68-15.74-15.06-14.47-46.13.66-60.65,8-7.72,17.82-11.36,28.95-11.36,10.29,0,19.7,2.94,27.23,10.09,9.36,8.91,12.41,21.28,12.41,33.85v31.37Z"></path><circle class="cls-2" cx="24.45" cy="187.76" r="10.57"></circle><path class="cls-3" d="M56.06,194.59c-17.12,4.32-22.88-17.29-5.56-19.16s21.31-8,21.5-24.44v-30.2c0-7.52-1.44-15.93-7.49-21.05-4-3.38-9-4.54-14.09-4.54A21.38,21.38,0,0,0,35,101.11c-8.23,7.88-8.63,28.29,1.15,36.16a21.07,21.07,0,0,0,14.47,4.89c3.27-.16,7,.11,10,1.59a7.61,7.61,0,0,1,4.58,5.94c.32,3.3-1.88,6-4.54,7.69-3.45,2.14-7.87,2.78-11.86,2.68-10.48-.26-19.83-3.37-27.47-10.69-15.74-15.06-14.45-46.21.67-60.72,8-7.72,17.82-11.36,28.94-11.36,10.29,0,19.71,2.93,27.23,10.09,9.37,8.91,12.41,21.28,12.41,33.85V151c.65,27.68-10.2,38.51-34.44,43.6Z"></path></g></svg> 