<?xml version="1.0" encoding="UTF-8"?> <svg xmlns="http://www.w3.org/2000/svg" id="Layer_1" data-name="Layer 1" viewBox="0 0 500 250"><defs><style>.cls-1{fill:#020202;}.cls-2{fill:#010101;}.cls-3{fill:#030303;}.cls-4{fill:#00a4a0;}</style></defs><g id="Layer_2" data-name="Layer 2"><g id="Layer_1-2" data-name="Layer 1-2"><g id="EPZ7FR.tif"><path class="cls-1" d="M85.38,142.68c0-11.8,0-23.59,0-35.39,0-1.43.19-2,1.83-1.93,3.88.15,7.78.1,11.65,0a3.72,3.72,0,0,1,3,1.25q10,10.11,20.08,20.11c.45.45.79,1.1,1.69,1.26,0-6.85.07-13.63-.06-20.41,0-1.8.37-2.35,2.2-2.23a56.26,56.26,0,0,0,7.79,0c1.64-.1,1.84.5,1.83,1.94-.06,11.79,0,23.58,0,35.38H121a1.87,1.87,0,0,0-.23-.52L97.37,118.71c-.07-.07-.23-.06-.52-.13v24.08Z"></path><path class="cls-1" d="M266.84,142.68c0-12.49,0-25,0-37.46,0-1.51.31-1.91,1.87-1.91,10.92.08,21.83.06,32.77,0a15.06,15.06,0,0,1,4,.57c4.34,1.18,6.77,4.43,6.86,9s-2,7.43-6.53,8.84c-.57.18-1.23.14-1.66.71a15.88,15.88,0,0,1,6.9,3.24c5.25,4.72,3.45,13.73-3.17,16.2-.57.22-1.34.09-1.67.82Zm21.32-17.36c-3.68,0-7.37,0-11,0-1.11,0-1.59.24-1.55,1.46.09,2.51.06,5,0,7.55,0,1,.17,1.45,1.33,1.45,7.28-.05,14.57.11,21.85-.09,3.65-.09,4.7-1.34,4.92-5.53a4.74,4.74,0,0,0-5.1-4.84C295.09,125.37,291.62,125.32,288.16,125.32Zm0-15.8c-3.68,0-7.37,0-11.06,0-1.11,0-1.57.23-1.52,1.45.1,2.31.07,4.63,0,7,0,1,.3,1.3,1.29,1.3,7.29,0,14.59,0,21.89,0a4.84,4.84,0,0,0,4.95-5.06c0-2.63-2.12-4.56-5.12-4.57-3.5-.08-7-.06-10.45-.06Z"></path><path class="cls-2" d="M144.78,142.68a4.87,4.87,0,0,0,.22-2.42c0-10.91,0-21.82,0-32.74,0-1.62.24-2.17,2.05-2.16q20.89.12,41.74,0c1.42,0,2.15.16,1.93,1.83s.69,3.9-.32,4.94-3.36.41-5.12.41c-8.73,0-17.46,0-26.19,0-1.34,0-1.91.28-1.7,1.68.23,1.59-.76,3.73.41,4.66,1,.78,3,.25,4.56.26,4.29,0,8.6.07,12.89,0,1.77,0,2.64.29,2.38,2.32a25.27,25.27,0,0,0,.06,4.92c.08,1.23-.26,1.64-1.55,1.64-5.66-.07-11.33,0-17-.06-1.41,0-1.94.3-1.79,1.78a22,22,0,0,1,0,4.29c-.15,1.5.41,1.78,1.8,1.77,9.9-.06,19.79,0,29.68-.07,1.54,0,2,.35,1.88,1.89-.16,1.69,0,3.41,0,5.11Z"></path><path class="cls-3" d="M201.32,142.68c2-2.66,4.83-4.56,7.23-6.87,3.94-3.77,8-7.45,12-11.14.9-.82.27-1.26-.28-1.78-2.68-2.52-5.36-5-8-7.55-3.06-2.91-6.1-5.84-9.19-8.72-.27-.26-.51-.45-.46-.79.09-.59.61-.41,1-.41,4.37,0,8.74,0,13.11,0,.92,0,1.33.56,1.85,1.07,3,3,6.06,5.91,8.94,9,1.17,1.26,1.78,1,2.83-.06,3.06-3.11,6.23-6.09,9.34-9.14a2.26,2.26,0,0,1,1.72-.86c4.5,0,9,0,13.69,0a7.57,7.57,0,0,1-2.2,2.51c-5.14,5.1-10.27,10.17-15.45,15.2-1,.93-.79,1.29.11,2.13q7.53,7,14.9,14.29c1,1,2.68,1.44,3,3.13H239.82c-3.36-3.94-7.27-7.32-10.86-11.15-3.56,3.84-7.5,7.2-10.84,11.15Z"></path><path class="cls-3" d="M370.05,142.68c0-1.37,1.37-1.57,2.1-2.28,5.38-5.21,10.77-10.41,16.24-15.52,1.08-1,.07-1.28-.34-1.68q-8.19-8.15-16.44-16.22a8.25,8.25,0,0,0-1.23-.9c.41-1,1-.66,1.37-.66q6,0,12.07,0a2.17,2.17,0,0,1,1.83.58c3.37,3.41,6.86,6.71,10.26,10.1.94.93,1.29.05,1.76-.41,3.06-3,6.12-6,9.11-9.11a3.5,3.5,0,0,1,2.83-1.19c3.81.07,7.63,0,11.47,0,.58,0,1.19-.16,1.42,0-2.46,2.71-4.88,5.55-7.5,8.17-3.28,3.27-6.67,6.37-10,9.52-.65.61-.65,1,0,1.64Q414,133.1,423,141.5a1.79,1.79,0,0,0,1.49.4c.25,1-.48.82-1,.82H407.3c-3.35-3.93-7.26-7.31-10.84-11.13-3.59,3.82-7.5,7.2-10.86,11.13Z"></path><path class="cls-3" d="M339.74,142.68c-1.64-.87-3.46-1.13-5.12-2-8.2-4.15-12.65-12.24-11.16-21.48a19.76,19.76,0,0,1,16-16.55,20.21,20.21,0,0,1,24.06,18.15c.9,10.71-6.9,19.9-16.09,21.47-.13,0-.23.25-.34.38ZM343.39,112a10.57,10.57,0,0,0-10.58,10.56c.16,5.79,3.9,10.56,10.55,10.62,6.35.06,10.43-4.38,10.65-10.48a10.5,10.5,0,0,0-10.62-10.71Z"></path><path class="cls-3" d="M10,105.41c14.13,0,28.27,0,42.39,0,1.51,0,1.94.32,1.9,1.87-.11,4.15,0,4.15-4.27,4.15-9.42,0-18.84,0-28.27,0-1.68,0-2,.52-1.95,2,.12,2.18.09,4.37,0,6.56-.05,1.15.29,1.48,1.45,1.47,6.08-.06,12.15,0,18.23-.06,1.32,0,1.7.41,1.81,1.63.56,6.12.58,6.11-5.42,6.11-4.78,0-9.56.06-14.34,0-1.36-.06-1.72.41-1.72,1.73.07,4,0,7.92,0,11.88-2.87,0-5.74-.05-8.61,0-1,0-1.25-.24-1.25-1.26C10,129.42,10,117.42,10,105.41Z"></path><path class="cls-3" d="M64.08,142.68c0-11.74,0-23.47,0-35.2,0-1.56.31-2.21,2-2.11,2.58.14,5.18.11,7.78,0,1.36-.06,1.67.36,1.66,1.7-.06,11.12,0,22.24,0,33.36,0,.74.06,1.49.09,2.24Z"></path><path class="cls-4" d="M490,94.6c-.79.68-1.67,1.27-2.46,2a30.61,30.61,0,0,0-4.17,4.42,93.33,93.33,0,0,0-6.53,10.39,3.84,3.84,0,0,1-2,1.53c-.44.19-.89.34-1.33.54-.21.1-.56.14-.44.51s.41.27.66.2c.61-.17,1.23-.38,1.87-.58.07.41-.23.63-.37.88-1.69,3-3.34,6-5.24,8.78a37.44,37.44,0,0,1-6.33,7.37,29.36,29.36,0,0,1-8.07,5,36.3,36.3,0,0,1-6.82,2.09,44.28,44.28,0,0,1-5,.67c-1.92.15-3.84.13-5.76.22a6.54,6.54,0,0,1-.89-.08c-.68-.05-1.07.41-1.46.91a43.35,43.35,0,0,0-5.73,9.66c-.48,1.06-1,2.11-1.5,3.27-.17-.44.06-.72.16-1a73.11,73.11,0,0,1,4.34-9.94,76.26,76.26,0,0,1,6.38-10.25c1.29-1.75,2.6-3.49,4-5.15a80.44,80.44,0,0,1,5.95-6.44,53.21,53.21,0,0,1,5.23-4.61c.41-.31.82-.68,1.21-1,.13-.12.34-.29.22-.45s-.38-.07-.55.06c-.93.7-1.85,1.42-2.81,2.09a52.54,52.54,0,0,0-4.91,4,71.85,71.85,0,0,0-5.71,5.6c-1,1.17-2.1,2.31-3.09,3.54a31.81,31.81,0,0,0-4.35,6.64c-.07.16-.1.41-.3.41s-.25-.33-.26-.48a31.78,31.78,0,0,1-.25-5,28.25,28.25,0,0,1,1.29-6.82,24,24,0,0,1,1.73-3.88,28.83,28.83,0,0,1,4.85-6.55,42.83,42.83,0,0,1,6.34-5.3c1.33-.92,2.78-1.67,4.19-2.46a71.21,71.21,0,0,1,13.52-5.52,130.26,130.26,0,0,1,15.08-3.75C483.8,95.47,486.88,95,490,94.6Z"></path><path class="cls-4" d="M427.34,155.36a3.28,3.28,0,0,1,.48-1.81C428,153.85,427.8,154.47,427.34,155.36Z"></path><path class="cls-4" d="M427.37,155.3a3.28,3.28,0,0,1,.48-1.81C428,153.79,427.83,154.41,427.37,155.3Z"></path><path class="cls-4" d="M427.37,155.3a3.28,3.28,0,0,1,.48-1.81C428,153.79,427.83,154.41,427.37,155.3Z"></path><path class="cls-4" d="M427.37,155.3a3.28,3.28,0,0,1,.48-1.81C428,153.79,427.83,154.41,427.37,155.3Z"></path><path class="cls-4" d="M427.65,154.74a3.28,3.28,0,0,1,.48-1.81C428.27,153.23,428.11,153.85,427.65,154.74Z"></path><path class="cls-4" d="M427.35,155.4a3.21,3.21,0,0,1,.49-1.81C428,153.89,427.82,154.51,427.35,155.4Z"></path><path class="cls-4" d="M427.63,154.43a3.25,3.25,0,0,1,.67-1.75C428.39,153,428.18,153.59,427.63,154.43Z"></path><path class="cls-4" d="M428,153.63a3.34,3.34,0,0,1,.48-1.82C428.61,152.11,428.46,152.73,428,153.63Z"></path></g></g></g></svg> 