<svg id="Layer_1" data-name="Layer 1" xmlns="http://www.w3.org/2000/svg" viewBox="0 0 500 280"><defs><style>.cls-1,.cls-2{fill:#e7226c;}.cls-2{fill-rule:evenodd;}</style></defs><path class="cls-1" d="M51.06,137.09c2.17,3.8-2.72,4.89-4.89,5.16-3.26.27-4.08-1.63-3.53-4.08A5.81,5.81,0,0,1,44,136a4,4,0,0,1,2.44-1.09,3.61,3.61,0,0,1,2.44.55A3.37,3.37,0,0,1,51.06,137.09Z"/><path class="cls-1" d="M64.09,130.3c-2.44,19,30.7,14.94,30.15,29.87,3.26-4.34,4.62-15.75-4.89-21.72C80.66,133,69.53,136,64.09,130.3Z"/><path class="cls-1" d="M83.38,123c-.27-.27-.54-.27-.54-.54A.58.58,0,0,0,83.38,123Z"/><path class="cls-1" d="M91,136.82h0a5.55,5.55,0,0,0-1.08-1.63,6.68,6.68,0,0,0-4.62-3,16.09,16.09,0,0,0-3.8-.55c-1.36,0-2.45-.27-3.8-.27a78.48,78.48,0,0,1-7.88-1.08c-.54-.27-1.36-.27-1.9-.55-.27,0-.55-.27-1.09-.27-.27-.27-.54-.27-1.09-.54a10.3,10.3,0,0,1-3.26-2.45c-1.9-1.9-3.53-4.07-5.16-6a52.34,52.34,0,0,0-4.88-6,19.59,19.59,0,0,0-6-4.61,22.75,22.75,0,0,0-7.33-2.18A15.46,15.46,0,0,1,47,108.84a22.14,22.14,0,0,1,6.79,4.35A22.73,22.73,0,0,1,57.3,117c8.42-1.63,14.94-.27,20.1,2.71h0A18.21,18.21,0,0,1,82,123c.27.27.54.27.54.55a30.62,30.62,0,0,1,3,3.26h0C89.35,130.3,91,134.37,91,136.82Z"/><path class="cls-1" d="M40.42,109.93a8.7,8.7,0,0,1,5.7,2.71,15.06,15.06,0,0,1,2.45,5.71A22.24,22.24,0,0,0,49.66,123a11.45,11.45,0,0,0,1.08,1.9c.27.55.82,1.09,1.09,1.63V127c-.82.81-2.72,0-3.53-.55a11.13,11.13,0,0,1-3.53-2.71,19.2,19.2,0,0,1-4.62-12.5A11.69,11.69,0,0,0,40.42,109.93Z"/><path class="cls-1" d="M75.23,148c-4.62,12.77,16.3,21.46,8.42,34.5,7.88-3.26,11.68-13.31,8.42-21.19C89.35,154.2,80.66,151.48,75.23,148Z"/><path class="cls-1" d="M47.8,164.52l4.07-2.44a22.47,22.47,0,0,1,4.62-1.36c3-.55,6.25-.82,8.69-1.9a9.57,9.57,0,0,0,3.53-2.18,6.84,6.84,0,0,0,2.17-3.26,10.39,10.39,0,0,0,.55-4.07A11.48,11.48,0,0,0,70.34,145a11.42,11.42,0,0,1,2.45,4.35,10,10,0,0,1,.27,4.89,10.87,10.87,0,0,1-2.45,4.62,11.78,11.78,0,0,1-4.34,2.71,30.66,30.66,0,0,1-4.89,1.09c-1.63,0-3,.27-4.62.27A26,26,0,0,0,47.8,164.52Z"/><path class="cls-1" d="M77.13,187.94c-.54.27-.81.81-1.36,1.09l-1.63.81a8.69,8.69,0,0,1-3.8.82c-3.53,0-6-2.72-7.33-5.71-1.09-1.9-1.63-4.07-2.72-6-1.63-2.72-4.62-4.89-7.87-4.62-1.36.27-2.72.81-3.26,1.9-1.91,3,.81,7.33,4.61,6.79a1,1,0,0,0,.82-.27c.27,0,.54-.27.81-.54a5.66,5.66,0,0,0,1.09-1.63,5.36,5.36,0,0,0,.27-2.18,2.5,2.5,0,0,0-1.09-1.63,2.46,2.46,0,0,1,1.63,1.63,13.45,13.45,0,0,0-.27,3A5.4,5.4,0,0,1,56,183.59a3.76,3.76,0,0,1-1.09.82,2.07,2.07,0,0,1-1.09.54,7.54,7.54,0,0,1-2.44.27,7,7,0,0,1-3.26-1.35c-1.09-.82-1.9-2.18-3-3a11.2,11.2,0,0,0-4.07-3,16.22,16.22,0,0,0-3.26-1.09c-.55,0-1.09-.27-1.63-.27-.27,0-1.63-.27-1.63-.27,1.9-1.63,3.8-3,5.7-4.35a30.71,30.71,0,0,1,6.79-3,17.74,17.74,0,0,1,7.61-.55,20.89,20.89,0,0,1,3.8,1.09,15.26,15.26,0,0,1,3.53,2.17,13.05,13.05,0,0,1,2.45,3.26,15.77,15.77,0,0,1,1.08,3.8c.82,3.81.55,9.78,5.43,10.6h1.63a3.44,3.44,0,0,0,1.63-.27A8.07,8.07,0,0,0,77.13,187.94Z"/><path class="cls-1" d="M43.41,129.81a12.37,12.37,0,0,1-.82,1.91,8.5,8.5,0,0,1-3,2.44,7.6,7.6,0,0,1-3.54.82h-.81a3.62,3.62,0,0,0-2.17.81,2.73,2.73,0,0,0-1.09,1.9c0,.27-.27.82-.27,1.09,0,1.08-.27,1.9-.27,3.26a21.67,21.67,0,0,1-1.63,6c-1.09,2.45-2.45,4.62-2.18,7.34a6.41,6.41,0,0,0,2.45,4.34c2.17,2.45,7.33,3.53,6.25,9.24-.82,3.53-6.52,7.06-14.4,8.42.82,0-1.09-3.26-1.09-3.53a32.54,32.54,0,0,1-2.44-4.08,15.48,15.48,0,0,1-1.36-9.23c.55-3.26,3-5.71,4.89-8.42,2.45-3,4.89-6.79,5.43-10.87a15.83,15.83,0,0,1,.55-3.26,20.07,20.07,0,0,1,1.08-3.8A5.72,5.72,0,0,1,30.64,132a2.1,2.1,0,0,0,.55-1.09,2.41,2.41,0,0,0-.28-1.36L18.15,106.46l18.47,22.81c.27.27.54.54.81.54.27.28.55.28,1.09.28a2,2,0,0,0,1.09-.28c.27-.27.54-.27.81-.54s.27-.54.27-1.09a1.62,1.62,0,0,0-.27-1.08,57.21,57.21,0,0,0-3.8-4.62L32,116.78l-9.23-11.41L10,89.34l13.85,14.94,9.78,10.87,4.89,5.43c1.63,1.9,3.26,3.53,4.89,5.7l.27.28v.54A8.39,8.39,0,0,1,43.41,129.81Z"/><path class="cls-1" d="M48.07,182.72l-2.45-2.45A7.08,7.08,0,0,0,48.07,182.72Z"/><path class="cls-2" d="M286.5,121.33c-9,2.18-13,9.24-10.59,17.66,1.09,3.53,4.34,7.33,9.23,10,8.42,4.89,11.14,6.79,12.5,9.78,1.08,2.44,1.36,3.26.81,5.7-1.36,5.43-5.16,8.15-10.59,8.15s-9.24-3-10.32-8.15c-.27-2.17-.82-2.72-1.63-2.72-1.09,0-1.36.55-1.36,5.71v5.7l3.53,1.09c5.71,1.9,13.58,1.63,18.2-.55,9.23-4.34,12.77-12.76,8.69-20.64-1.63-3-5.43-6.24-12-10.32-7.06-4.34-10-7.33-10.59-10.32-.82-4.89,3.53-8.69,9.5-8.69,4.62,0,6.52,1.08,8.15,4.62,1.09,2.17,1.63,3,3,3s1.63-.27,1.09-1.63a18.92,18.92,0,0,1-.55-4.61c0-2.18-.27-3.26-1.08-3.53C300.63,120.79,289,120.52,286.5,121.33Zm-177.63,1.9c0,1.09.54,1.36,1.63,1.36,3.26,0,3.53.82,3.8,20.65.27,17.11.54,18.47,1.9,21.18a17.69,17.69,0,0,0,8.69,7.88c2.72,1.36,4.62,1.63,10.32,1.63,6,0,7.34-.27,10.6-1.9a21.2,21.2,0,0,0,6-4.35c3.8-4.62,4.35-7.06,4.62-26.07.54-18.47.54-18.75,3.53-18.75.82,0,1.09-.54,1.09-1.35,0-1.36-.55-1.36-8.15-1.36s-8.15,0-8.15,1.36c0,1.08.54,1.35,2.17,1.63,3.53.27,3.81,1.63,3.81,18.47,0,17.11-.55,20.37-4.35,23.9-3.26,3.26-6,4.34-10.59,4.34-6.52,0-11.41-3-12.77-8.42-.54-1.9-.81-8.42-.54-20.1l.27-17.38,2.44-.81a5.77,5.77,0,0,0,2.72-1.91c.27-1.08-.81-1.08-9.23-1.08C109.41,121.88,108.87,121.88,108.87,123.23Zm62.51,0c0,1.09.54,1.36,1.9,1.36,3.53,0,5.43,1.36,6.25,4.35.54,1.63.54,9.51.54,20.64-.27,20.1-.54,21.46-4.61,22.27-1.36.28-1.91.82-1.91,1.63,0,1.09.55,1.36,9.51,1.36,8.69,0,9.51,0,9.51-1.09,0-.81-.82-1.35-3-1.9-2.72-.81-3-1.08-3.8-3.26-1.09-3.26-1.09-34-.27-33.68.27,0,3,2.72,6,6.25s10.87,12.5,17.93,19.83c10.86,11.68,12.76,13.85,14.39,12h1.86V150.94c.59-17.11.86-24.17,1.4-24.72a7.84,7.84,0,0,1,3-1.36c1.36-.27,2.17-.81,2.17-1.35,0-.82-1.63-1.09-9.23-1.09-9-.27-9.24-.27-9.24,1.09,0,1.08.55,1.35,1.63,1.35a8.07,8.07,0,0,1,3.53,1.63l1.32,1.63v16.3c.86,9.24.86,16.3.58,16.3s-2.44-2.18-4.61-4.62-8.42-9.51-13.85-15.48S190.94,128.12,189,126l-3.26-4.56h-7.07C171.65,121.88,171.38,121.88,171.38,123.23Zm71.16,0c0,1.09.55,1.36,1.91,1.36a6.66,6.66,0,0,1,3.25,1.09c1.36.81,1.36,2.17,1.63,20.91.28,23.36,0,24.72-4.07,25.26-1.9.28-2.72.82-2.72,1.63,0,1.09.82,1.36,10.33,1.36,9.77,0,10.32,0,10.32-1.36,0-1.08-.55-1.35-1.63-1.35a6.69,6.69,0,0,1-3-1.09c-1.36-.82-1.36-2.17-1.63-22.27-.27-20.65-.27-21.46,1.09-22.82a5,5,0,0,1,3-1.36c1.36,0,1.63-.27,1.63-1.36,0-1.35-.54-1.35-10.32-1.35C243.09,121.88,242.54,121.88,242.54,123.23Zm71.44.07a1.8,1.8,0,0,0,1.9,1.35,5.57,5.57,0,0,1,3,1.63c.81.82,5.43,11.95,10.59,25.26l9,23.63,2.45.28,2.44.27,6.25-16.84c3.53-9.24,6.79-17.66,7.06-18.47.82-1.63.82-1.36,3,4.07,1.09,3.26,4.34,11.41,7.06,18.47l4.89,12.77h2.17c1.09,0,2.18-.27,2.45-.82s3.26-8.42,7.06-17.65c3.53-9.24,7.6-19.56,9-22.82,3-7.6,3.53-8.42,5.71-9.23,1.08-.27,1.9-1.09,1.9-1.63,0-.82-1.36-1.09-8.15-1.09-7.61,0-8.15,0-8.15,1.36,0,1.09.54,1.36,1.63,1.36,2.72,0,3.8.81,3.8,2.44,0,1.36-13,36.4-13.85,37.21-.54.55-12.22-32-12.49-35.31-.55-3,.81-4.34,3.8-4.34,1.09,0,1.63-.27,1.63-1.36,0-1.36-.54-1.36-10.59-1.36s-10.6,0-10.6,1.36a1.25,1.25,0,0,0,1.09,1.36c2.17,0,4.89,2.17,5.7,4.07,1.09,3,.28,6-6,22.27L342.5,165.4l-1.09-2.72c-.54-1.36-3.8-10.05-7.06-19-6.52-17.66-6.52-18.47-2.17-18.47,1.63,0,1.9-.27,1.9-1.36,0-1.36-.55-1.36-10.05-1.36C313.71,121.94,313.43,121.94,314,123.3Zm137.12-.24v1.11c0,.27.77.27.77.27.51,0,.77.28,1.28.28,2.05.55,3.33.83,3.84,2.22.26.83.52,4.16.52,21.62,0,18.29,0,20.51-.52,21.61-.51,1.39-1.53,2.22-4.1,3.05a4.15,4.15,0,0,0-1.28.56,1.46,1.46,0,0,0-.25.83,1.48,1.48,0,0,0,.25.83c.26.28,1,.28,1,.28H469.8a1.18,1.18,0,0,0,.77-.28,1.43,1.43,0,0,0,.26-.83,1.42,1.42,0,0,0-.26-.83,4.05,4.05,0,0,0-1.28-.56c-2.3-.55-3.59-1.38-4.1-2.77-.51-1.11-.51-3.6-.51-9.42v-8.32c.26.28.51.28.77.56,1.28.83,2.82,2.21,8.45,2.21a14.6,14.6,0,0,0,13.59-6.92c2.56-3.88,3.33-10,1.53-16.63-1.79-6.38-7.17-10.54-14.6-10.81a96.74,96.74,0,0,0-12.82.27h-.76c-2.82,0-6.41.56-8.2.56h0c-.52,0-.52,0-.77.28C451.1,122.78,451.1,123.06,451.1,123.06Zm30.15,25.71c3-2.72,3-7.07,3-10.05-.28-4.35-2.18-12.77-12-12.77-2.44,0-7.06.27-7.33,3.53-.27.55-.27,4.62-.27,10.59v9.78l1.09.55h0a12.45,12.45,0,0,0,2.44.81C472.28,152.3,478.26,151.48,481.25,148.77ZM418.37,123a11.35,11.35,0,0,0,1.35-.54s1.08-.54,1.35,0c0,.27.54,1.09,1.62,3.8a4,4,0,0,1,.55,1.63c1.35,3.81,3.51,9.24,4.59,12.23s3.24,8.42,4.86,12.76c1.63,4.08,3.52,9.24,4.6,11.68a31.2,31.2,0,0,0,2.43,5.16c.27.27.27.54.54.82.81,1.08,1.62,2.71,3.51,3a5.72,5.72,0,0,1,1.63.55.84.84,0,0,1,.27.54v.82a.26.26,0,0,1-.27.27c0,.27-.54,0-.54,0H426.91c-.26,0-.26-.55-.26-.55v-.54a1.37,1.37,0,0,1,.26-.81,5,5,0,0,1,1.55-.55,4.28,4.28,0,0,0,3.63-3.26v-.35c.57-1.11.28-1.93-2.29-7.72-1.72-3.86-2.29-5-2.57-5.24H408.07l-.57,1.38c-1.72,4.41-3.15,8.54-3.15,9.65a4.25,4.25,0,0,0,3.72,5.51,6,6,0,0,1,1.72.55,4,4,0,0,1,.57.82v.56a.84.84,0,0,1-.29.55c-.28.27-.86,0-.86,0h-17a.85.85,0,0,1-.55-.27.87.87,0,0,1-.27-.55v-.54s0-.27.54-.82a2.71,2.71,0,0,1,1.63-.54c2.16-.27,3.51-2.72,4.32-4.07a.26.26,0,0,1,.27-.27c.27-.55,1.62-3.54,3-6.8s2.71-7.06,3.25-8.14c1.62-4.08,3.24-7.88,5.67-13.86,1.35-3.26,3.25-8.14,4.33-10.86l1.89-4.89Zm.18,11.68a31.4,31.4,0,0,1,1.36,3.53c.27.82,1.36,3.26,2.17,5.44s1.9,4.61,2.44,5.7a15.75,15.75,0,0,1,.82,1.9H418c-4.62,0-7.34,0-7.34-.27a2.81,2.81,0,0,0,.27-1.09c.28-.81,1.91-5.16,5.16-14.39a21.65,21.65,0,0,0,1.09-3C417.46,132.53,417.73,132.8,418.55,134.7Z"/></svg>