<svg id="Layer_1" data-name="Layer 1" xmlns="http://www.w3.org/2000/svg" viewBox="0 0 157.47 150"><defs><style>.cls-1{fill:#679ed5;}.cls-2{fill:#a168a8;}</style></defs><path class="cls-1" d="M123.53,131.37a7.65,7.65,0,0,1-7.64,7.64H43.53a7.65,7.65,0,0,1-7.64-7.64V27.8a7.65,7.65,0,0,1,7.64-7.64H95.1v-11H43.53A18.63,18.63,0,0,0,24.9,27.8V131.37A18.63,18.63,0,0,0,43.53,150h72.36a18.63,18.63,0,0,0,18.63-18.63V50.25h-11Z"/><path class="cls-1" d="M119.19,126.24a6.9,6.9,0,0,1-6.89,6.89H47.12a6.9,6.9,0,0,1-6.89-6.89V32.93a6.89,6.89,0,0,1,6.89-6.88H93.58V16.14H47.12A16.79,16.79,0,0,0,30.33,32.93v93.31A16.79,16.79,0,0,0,47.12,143H112.3a16.79,16.79,0,0,0,16.79-16.79V53.16h-9.9Z"/><polyline class="cls-2" points="142.57 54.81 87.76 54.81 87.76 0"/></svg>