<svg id="Layer_1" data-name="Layer 1" xmlns="http://www.w3.org/2000/svg" viewBox="0 0 150 150"><defs><style>.cls-1{fill:#679ed5;}.cls-2{fill:#a168a8;}</style></defs><path class="cls-1" d="M74,107.22h0c-.4-.25-.81-.51-1.2-.78h0l-.43-.29h0l-.49-.36-.81-.58h0c-.4-.31-.8-.62-1.19-.94h0c-.54-.44-1.06-.9-1.57-1.37s-.79-.73-1.17-1.12h0c-.68-.67-1.32-1.37-1.93-2.09h0c-.1-.1-.19-.21-.28-.32h0q-.35-.41-.66-.81h0l-.23-.28c-.26-.33-.51-.67-.75-1h0l-.07-.09a24.42,24.42,0,0,1-3.76.88l.21.3c.06.09.12.17.17.26.26.37.52.73.79,1.09l0,0c.25.34.52.68.79,1l.21.27.86,1,0,0c.28.34.58.66.88,1l.23.25c.31.33.62.66.95,1s.69.67,1,1l.27.25c.35.32.7.64,1.06,1l.12.09c.32.28.65.55,1,.81l.34.27c.35.28.71.55,1.07.82l.23.16.93.65.37.25.21.14a38.78,38.78,0,0,0,3.75-1.9l-.53-.32Z"/><path class="cls-1" d="M69.74,108.67l-.23-.16c-.36-.27-.72-.54-1.07-.82l-.34-.27c-.33-.26-.66-.53-1-.81l-.12-.09c-.36-.31-.71-.63-1.06-1l-.27-.25c-.35-.33-.7-.66-1-1s-.64-.65-.95-1l-.23-.25c-.3-.33-.6-.65-.88-1l0,0-.86-1-.21-.27c-.27-.34-.54-.68-.79-1l0,0c-.27-.36-.53-.72-.79-1.09,0-.09-.11-.17-.17-.26l-.21-.3a23.32,23.32,0,1,1,0-46.14A42,42,0,0,1,71.25,40.29a37.89,37.89,0,0,0-42,7.93L2.5,75l26.78,26.78a37.89,37.89,0,0,0,42,7.93l-.21-.14-.37-.25Z"/><path class="cls-1" d="M85.78,96.84l-.87-.34-.06,0q-.43-.18-.87-.39h0a23.74,23.74,0,0,1-3.23-1.87l-.09-.06h0l-.45-.33-.32-.23c-.64-.49-1.26-1-1.86-1.58l-.54-.51c-.23-.23-.45-.46-.67-.7h0c-.42-.46-.81-.93-1.19-1.41h0l0,0-.45-.61L75,88.6a22.87,22.87,0,0,1-2.45,2.89,23.21,23.21,0,0,1-9.31,5.7l.07.09c.24.33.49.67.75,1l.23.28q.31.41.66.81c.09.11.18.22.28.32.22.26.45.52.68.77l.27.3c.32.35.64.69,1,1h0c.38.39.77.75,1.17,1.12h0l.33.3,1,.85.26.22c.39.32.79.63,1.19.94l.41.3.4.28.49.36.43.29c.39.27.8.53,1.2.78l.45.27.41.24.12.07a37.72,37.72,0,0,0,7.85-6h0a38.39,38.39,0,0,0,3.92-4.59h0l-.93-.32Z"/><path class="cls-1" d="M83,95.61h0a23.68,23.68,0,0,0,3.72,1.57c.73-1,1.41-2.07,2-3.13l-.14,0-1-.29-.16,0c-.38-.13-.74-.27-1.1-.42l-.15-.06-1-.43-.18-.09c-.35-.17-.69-.36-1-.55L84,92.05c-.3-.17-.6-.36-.89-.55l-.21-.14c-.32-.21-.64-.44-1-.67l-.07-.07c-.28-.21-.56-.44-.83-.67l-.22-.2c-.29-.26-.58-.52-.85-.8s-.58-.59-.85-.9l-.42-.5-.36-.44c-.16-.21-.32-.43-.47-.65s-.16-.21-.23-.32-.3-.46-.44-.68L77,85.18a22.05,22.05,0,0,1-2,3.42l0,.06.06.08.45.61h0l0,0c.18.24.37.47.57.7l.06.08.56.63c.22.24.44.47.67.7L78,92l.39.36.23.21c.31.27.63.53.94.78l0,0c.34.27.69.52,1,.77l.09.06.07,0A23.6,23.6,0,0,0,83,95.61Z"/><path class="cls-1" d="M77.66,86.14c.07.11.15.21.23.32s.31.44.47.65l.36.44.42.5c.27.31.55.61.85.9s.56.54.85.8l.22.2c.27.23.55.46.83.67l.07.07c.31.23.63.46,1,.67l.21.14c.29.19.59.38.89.55l.11.07c.34.19.68.38,1,.55l.18.09,1,.43.15.06c.36.15.72.29,1.1.42l.16,0,1,.29.14,0a37.94,37.94,0,0,0,0-38.1A19.48,19.48,0,0,0,80,61.05,19.22,19.22,0,0,0,77,64.82a23.38,23.38,0,0,1,0,20.36l.18.28C77.36,85.68,77.5,85.91,77.66,86.14Z"/><path class="cls-2" d="M120.72,48.22a37.89,37.89,0,0,0-53.57,0h0a37.9,37.9,0,0,0-6,45.84h0A19.7,19.7,0,0,0,73,85.19,23.31,23.31,0,1,1,90.52,98.07a41.92,41.92,0,0,1-5.14,6.25,41.47,41.47,0,0,1-6.63,5.39h0a37.89,37.89,0,0,0,42-7.93L147.5,75Z"/></svg>