<svg id="Layer_1" data-name="Layer 1" xmlns="http://www.w3.org/2000/svg" viewBox="0 0 150 150"><defs><style>.cls-1{fill:#679ed5;}.cls-2{fill:#a168a8;}</style></defs><path class="cls-1" d="M119.47,129.49a7.4,7.4,0,0,1-7.39,7.39H42.14a7.4,7.4,0,0,1-7.39-7.39V29.38A7.4,7.4,0,0,1,42.14,22H92V11.36H42.14a18,18,0,0,0-18,18V129.49a18,18,0,0,0,18,18h69.94a18,18,0,0,0,18-18V51.08H119.47Z"/><path class="cls-1" d="M115.27,124.53a6.66,6.66,0,0,1-6.65,6.66h-63A6.66,6.66,0,0,1,39,124.53V34.33a6.65,6.65,0,0,1,6.65-6.65H90.52V18.11H45.6A16.23,16.23,0,0,0,29.37,34.33v90.2A16.23,16.23,0,0,0,45.6,140.76h63a16.23,16.23,0,0,0,16.22-16.23V53.88h-9.57Z"/><polyline class="cls-2" points="137.87 55.48 84.89 55.48 84.89 2.5"/></svg>