<svg id="Layer_1" data-name="Layer 1" xmlns="http://www.w3.org/2000/svg" viewBox="0 0 157.47 150"><defs><style>.cls-1{fill:#679ed5;}.cls-2{fill:#a168a8;}</style></defs><path class="cls-1" d="M89.71,64.81V42H42.56a15.81,15.81,0,0,0-15.8,15.81V92.73c0,.29,0,.58,0,.87h0A26.78,26.78,0,0,1,0,66.82V34.56A15.81,15.81,0,0,1,15.81,18.75H155Z"/><path class="cls-2" d="M67.76,85.19V108h47.15a15.8,15.8,0,0,0,15.8-15.81V57.27c0-.29,0-.58,0-.87h0a26.78,26.78,0,0,1,26.78,26.78v32.26a15.81,15.81,0,0,1-15.8,15.81H2.43Z"/></svg>