<svg id="Layer_1" data-name="Layer 1" xmlns="http://www.w3.org/2000/svg" viewBox="0 0 215.34 150"><defs><style>.cls-1{fill:#679ed5;}.cls-2{fill:#a168a8;}</style></defs><path class="cls-1" d="M106.22,122.85h0c-.61-.37-1.2-.76-1.79-1.16h0c-.22-.14-.43-.29-.64-.44h0l-.73-.52-1.2-.87h0c-.6-.45-1.19-.92-1.77-1.4h0c-.79-.65-1.57-1.33-2.33-2-.59-.54-1.17-1.09-1.73-1.65h0c-1-1-2-2-2.88-3.11h0l-.41-.48h0l-1-1.2h0l-.33-.42c-.39-.49-.76-1-1.12-1.49h0l-.1-.13a34.65,34.65,0,0,1-5.57,1.31l.3.45.26.38q.57.82,1.17,1.62l0,.05c.38.52.78,1,1.18,1.53l.31.39c.42.52.85,1,1.28,1.54l0,0c.43.5.87,1,1.31,1.46l.35.38c.46.49.93,1,1.4,1.45s1,1,1.55,1.49l.41.38c.52.47,1,.94,1.57,1.39L96,122c.48.41,1,.8,1.46,1.2l.5.4c.53.41,1.06.82,1.6,1.21l.33.24c.46.33.93.66,1.4,1l.53.37.33.21a55.73,55.73,0,0,0,5.55-2.83l-.78-.47Z"/><path class="cls-1" d="M99.85,125l-.33-.24c-.54-.39-1.07-.8-1.6-1.21l-.5-.4c-.49-.4-1-.79-1.46-1.2l-.17-.15c-.53-.45-1.05-.92-1.57-1.39l-.41-.38c-.52-.49-1-1-1.55-1.49s-.94-1-1.4-1.45l-.35-.38c-.44-.48-.88-1-1.31-1.46l0,0c-.43-.51-.86-1-1.28-1.54l-.31-.39c-.4-.5-.8-1-1.18-1.53l0-.05q-.6-.79-1.17-1.62l-.26-.38-.31-.45a34.63,34.63,0,1,1,0-68.52A62.25,62.25,0,0,1,102.1,23.45,56.27,56.27,0,0,0,39.78,35.23L0,75l39.78,39.78a56.27,56.27,0,0,0,62.32,11.77l-.32-.21-.53-.37C100.78,125.66,100.31,125.33,99.85,125Z"/><path class="cls-1" d="M123.68,107.44q-.65-.24-1.29-.51l-.09,0c-.44-.18-.87-.38-1.3-.58l0,0a35.07,35.07,0,0,1-4.81-2.78l-.12-.09h0l-.68-.48-.47-.35q-1.43-1.09-2.76-2.34c-.27-.25-.54-.5-.8-.76s-.67-.69-1-1h0c-.62-.68-1.21-1.38-1.77-2.09h0l0,0c-.24-.3-.46-.6-.68-.9l-.15-.21A34.57,34.57,0,0,1,90.21,108a1.13,1.13,0,0,0,.1.13c.36.5.73,1,1.12,1.49l.33.42,1,1.2.41.48c.33.39.67.77,1,1.14l.41.45c.47.51,1,1,1.46,1.52h0c.56.56,1.14,1.11,1.73,1.65h0l.5.45c.48.43,1,.85,1.46,1.27l.37.31c.58.48,1.17,1,1.77,1.4l.6.45.6.42.73.52c.21.15.42.3.64.44.59.4,1.18.79,1.79,1.16l.66.4.61.36.19.1a56.36,56.36,0,0,0,11.65-8.93h0a57.33,57.33,0,0,0,5.82-6.83h0q-.7-.23-1.38-.48Z"/><path class="cls-1" d="M119.59,105.61h0a34.57,34.57,0,0,0,5.52,2.33c1.09-1.51,2.09-3.07,3-4.65l-.21-.06c-.48-.14-1-.28-1.44-.44l-.24-.08c-.55-.19-1.09-.39-1.63-.61l-.22-.1c-.48-.2-1-.41-1.41-.64l-.26-.12c-.52-.26-1-.54-1.54-.83l-.17-.09c-.44-.26-.88-.54-1.31-.82l-.31-.21c-.48-.32-1-.65-1.41-1l-.11-.1c-.42-.32-.82-.65-1.22-1l-.34-.29c-.43-.38-.85-.78-1.26-1.19s-.86-.88-1.26-1.34c-.22-.25-.42-.5-.62-.75s-.37-.42-.54-.64-.47-.64-.7-1l-.35-.48c-.23-.33-.44-.67-.65-1-.09-.14-.18-.27-.26-.41a34.51,34.51,0,0,1-3,5.08l.06.08.09.13.68.9h0l0,0c.27.35.55.69.84,1l.1.11.83.94c.32.35.65.7,1,1l.8.76.58.53.35.31c.46.4.92.79,1.39,1.16l0,0c.5.4,1,.78,1.55,1.14l.12.09.11.07A35,35,0,0,0,119.59,105.61Z"/><path class="cls-1" d="M111.61,91.54,112,92c.23.33.46.65.7,1s.36.43.54.64.4.5.62.75c.4.46.82.91,1.26,1.34s.83.81,1.26,1.19l.34.29c.4.35.8.68,1.22,1l.11.1c.46.35.93.68,1.41,1l.31.21c.43.28.87.56,1.31.82l.17.09c.5.29,1,.57,1.54.83l.26.12c.46.23.93.44,1.41.64l.22.1c.54.22,1.08.42,1.63.61l.24.08c.48.16,1,.3,1.44.44l.22.05a56.32,56.32,0,0,0,0-56.59A29.36,29.36,0,0,0,110.7,59.88a34.72,34.72,0,0,1,0,30.24c.08.14.17.27.26.41C111.17,90.87,111.38,91.21,111.61,91.54Z"/><path class="cls-2" d="M175.56,35.23a56.25,56.25,0,0,0-79.55,0h0a56.27,56.27,0,0,0-8.85,68.07h0a29.35,29.35,0,0,0,17.47-13.16,34.64,34.64,0,1,1,26.08,19.12,62.27,62.27,0,0,1-7.63,9.28,63,63,0,0,1-9.85,8h0a56.27,56.27,0,0,0,62.32-11.77L215.34,75Z"/></svg>