<svg id="Layer_1" data-name="Layer 1" xmlns="http://www.w3.org/2000/svg" viewBox="0 0 150 150"><defs><style>.cls-1{fill:#679ed5;}.cls-2{fill:#a168a8;}</style></defs><path class="cls-1" d="M85.11,65.61v-21H41.69A14.56,14.56,0,0,0,27.14,59.2V91.32c0,.27,0,.54,0,.81h0A24.66,24.66,0,0,1,2.5,67.47V37.76A14.56,14.56,0,0,1,17.05,23.2H145.26Z"/><path class="cls-2" d="M64.89,84.39v21h43.42A14.56,14.56,0,0,0,122.86,90.8V58.68c0-.27,0-.54,0-.81h0A24.66,24.66,0,0,1,147.5,82.53v29.71A14.56,14.56,0,0,1,133,126.8H4.74Z"/></svg>